<?xml version="1.0" encoding="utf-8"?>
<!-- Generator: Adobe Illustrator 19.1.0, SVG Export Plug-In . SVG Version: 6.00 Build 0)  -->
<svg version="1.1" id="Layer_1" xmlns="http://www.w3.org/2000/svg" xmlns:xlink="http://www.w3.org/1999/xlink" x="0px" y="0px"
	 viewBox="0 0 510 510" style="enable-background:new 0 0 510 510;" xml:space="preserve">
<style type="text/css">
	.st0{fill:#63B6E5;}
	.st1{fill:#50ABD0;}
	.st2{fill:#30323F;}
	.st3{fill:#FFFFFF;}
	.st4{opacity:0.37;}
	.st5{fill:#231F20;}
	.st6{fill:#292A35;}
	.st7{fill:#E72526;}
	.st8{fill:#2D2F3A;}
	.st9{fill:#252730;}
	.st10{fill:#CB2A2B;}
</style>
<g>
	<path class="st0" d="M432.3,510V275.4c0-22.8-4.3-44.5-12.2-64.5c-11.7-30-31.3-55.9-56.3-75.4c-30-23.4-67.8-37.4-108.8-37.4h0
		v67.9h0c50.1,0,90.8,40.6,90.8,90.8c0,50.1-40.6,90.8-90.8,90.8h0V392v118H432.3z"/>
	<path class="st1" d="M255,510V392v-44.3c-50.1,0-90.8-40.6-90.8-90.8c0-50.1,40.6-90.8,90.8-90.8V98.1c-41.1,0-78.9,14-108.9,37.5
		c-25.2,19.7-44.9,46-56.6,76.3c-7.6,19.7-11.8,41.1-11.8,63.5V510H255z"/>
	<circle class="st2" cx="303.5" cy="230.7" r="26.2"/>
	<path class="st3" d="M255,166.1L255,166.1c-50.1,0-90.8,40.6-90.8,90.8c0,50.1,40.6,90.8,90.8,90.8h0c50.1,0,90.8-40.6,90.8-90.8
		C345.8,206.7,305.1,166.1,255,166.1z M303.5,256.9c-14.5,0-26.2-11.7-26.2-26.2s11.7-26.2,26.2-26.2c14.5,0,26.2,11.7,26.2,26.2
		S317.9,256.9,303.5,256.9z"/>
	<g class="st4">
		<g>
			<path class="st5" d="M143.9,343.1c0.2,12.6,9.7,22.1,19.7,28.6c15.7,10.2,34.6,15.3,52.9,18.2c23.1,3.7,46.8,4.1,69.9,1
				c18.9-2.5,38.2-7,55.1-16.3c11.8-6.5,24.4-16.9,24.6-31.5c0.1-3.2-4.9-3.2-5,0c-0.2,12.1-11,20.8-20.6,26.3
				c-14.9,8.6-32.2,13.1-49,15.8c-21.2,3.4-43.1,3.6-64.4,1.2c-18-2.1-36.4-6.2-52.7-14.3c-11.2-5.6-25.1-14.9-25.4-28.9
				C148.9,339.9,143.9,339.9,143.9,343.1L143.9,343.1z"/>
		</g>
	</g>
	<g>
		<path class="st2" d="M276,74.7l18.7-6.3c-20.3-53.1-79-81.1-133.3-62.7l0,0l32.8,96.7L276,74.7z"/>
		<path class="st6" d="M322.6,81.5l-21,7.1L282.9,95l-4.2,1.4L201,122.7l6.9,20.4L308.6,109l0-0.1l21-7.1c3.3-1.1,4.8-5.8,3.2-10.4
			l-1.3-3.7C329.9,83.2,326,80.4,322.6,81.5z"/>
		<path class="st7" d="M194.1,102.4l6.9,20.3l77.7-26.3l4.2-1.4l18.8-6.4l-5.5-16.3l0,0c0,0,0,0,0-0.1l0,0c-0.4-1.3-0.9-2.6-1.4-3.9
			L276,74.7L194.1,102.4z"/>
		<path class="st8" d="M93.5,136.4l22.5-7.6l78.1-26.5L161.3,5.6l0,0C107,24,77.4,82,93.5,136.4z"/>
		<path class="st9" d="M127.1,147.7l-4.2,1.4l-22.6,7.6l-17.2,5.8c-3.3,1.1-4.8,5.8-3.2,10.4l1.3,3.7c1.6,4.6,5.5,7.4,8.9,6.3
			l17.2-5.8l0,0.1l100.7-34.1l-6.9-20.4L127.1,147.7z"/>
		<path class="st10" d="M116,128.8l-22.5,7.6c0.4,1.3,0.8,2.6,1.2,3.9l0,0c0,0,0,0,0,0.1l0,0l5.5,16.3l22.6-7.6l4.2-1.4l73.9-25
			l-6.9-20.3L116,128.8z"/>
	</g>
</g>
</svg>
