<?xml version="1.0" encoding="utf-8"?>
<!-- Generator: Adobe Illustrator 19.1.0, SVG Export Plug-In . SVG Version: 6.00 Build 0)  -->
<svg version="1.1" id="Layer_1" xmlns="http://www.w3.org/2000/svg" xmlns:xlink="http://www.w3.org/1999/xlink" x="0px" y="0px"
	 viewBox="0 0 510 510" style="enable-background:new 0 0 510 510;" xml:space="preserve">
<style type="text/css">
	.st0{fill:#F74152;}
	.st1{fill:#DD374B;}
	.st2{fill:#FFFFFF;}
	.st3{fill:#B52C43;}
	.st4{fill:#A52944;}
	.st5{fill:#33353D;}
	.st6{fill:#5D5D5D;}
	.st7{fill:#FFF8E3;}
	.st8{fill:#21242B;}
	.st9{fill:#EDE3C8;}
</style>
<g>
	<path class="st0" d="M299.2,240.7c-1.6-0.9-3.1-1.9-4.5-3.1C296.1,238.8,297.6,239.9,299.2,240.7z"/>
	<path class="st0" d="M288.4,230.5c-1.2-2-2.2-4.1-2.8-6.3C286.3,226.4,287.3,228.5,288.4,230.5z"/>
	<path class="st0" d="M292.7,235.8c-1-1-1.9-2-2.7-3.1C290.8,233.8,291.7,234.9,292.7,235.8z"/>
	<path class="st0" d="M271,333v16C272,343.7,272,338.3,271,333z"/>
	<path class="st0" d="M320,243.3c-0.9,0.2-1.8,0.4-2.8,0.6C318.1,243.7,319.1,243.5,320,243.3z"/>
	<path class="st0" d="M304.4,242.9c-0.9-0.3-1.8-0.6-2.6-1C302.6,242.3,303.5,242.6,304.4,242.9z"/>
	<path class="st0" d="M332,236.8c-2.4,2.1-5.1,3.9-8.1,5.2C326.9,240.7,329.6,238.9,332,236.8z"/>
	<path class="st0" d="M323.9,241.9c-1.3,0.5-2.6,1-4,1.3C321.3,242.9,322.7,242.5,323.9,241.9z"/>
	<path class="st0" d="M330.1,193c0.6,0.5,1.3,1,1.9,1.6C331.4,194,330.8,193.5,330.1,193z"/>
	<path class="st0" d="M285.5,207.5c-0.8,2.6-1.2,5.3-1.2,8.2c0,3,0.4,5.8,1.3,8.5c-0.8-2.7-1.3-5.5-1.3-8.5
		C284.3,212.8,284.7,210.1,285.5,207.5z"/>
	<path class="st0" d="M290,198.6c0.7-0.9,1.4-1.8,2.2-2.6C291.4,196.8,290.7,197.7,290,198.6z"/>
	<path class="st0" d="M332,236.8c5.7-5.2,9.3-12.7,9.3-21.1c0-7.9-3.2-15-8.4-20.2c5.2,5.2,8.4,12.3,8.4,20.2
		C341.4,224,337.8,231.6,332,236.8z"/>
	<path class="st0" d="M463.6,359.8c0-22.2-17.6-40.5-39.6-42.6V226h0.6C424.3,142,356,72.9,271,72.8v0.1v92.9
		c45,0,82.1,36.6,82.1,81.7c0,43.1-33.1,78.3-75.4,81.5c0.9,6.1,1.2,12.3,0.8,18.4c8.7,13.7,24.2,11.6,38.1,11.6
		c14.5,0,28.4,0,43.4,0c4,0,4,6,0,6c-16,0-32,0-47,0v21c0,1.3-1.3,2-2.6,2h-15.2c-1.3,0-3.1-0.6-3.1-2v-21.7c-5-1.2-11-3.4-15.4-7.8
		c-1.1,6-2.6,12-5.6,17.7V510h153v-0.4c22-1.9,39.5-19.9,39.5-42.3"/>
	<path class="st0" d="M317.2,187.5c0.9,0.1,1.9,0.3,2.8,0.6C319.1,187.8,318.1,187.6,317.2,187.5z"/>
	<path class="st0" d="M301.7,189.4c0.5-0.2,1.1-0.4,1.6-0.6C302.8,189,302.3,189.2,301.7,189.4z"/>
	<path class="st0" d="M288.4,200.9c-1.1,1.9-2,3.9-2.7,6C286.4,204.7,287.3,202.7,288.4,200.9z"/>
	<path class="st0" d="M323.9,189.4c1.1,0.5,2.2,1,3.2,1.6C326.1,190.4,325,189.9,323.9,189.4z"/>
	<path class="st0" d="M322.2,188.7c0.6,0.2,1.2,0.4,1.7,0.7C323.4,189.1,322.8,188.9,322.2,188.7z"/>
	<path class="st1" d="M267.9,381.3c-2.1,3.7-7.9,0.4-5.9-3.3c5.1-9.1,7.9-19,8.9-29.1v-16c-1-14.7-6.9-28.8-16.9-40.4
		c-19.9-23-51.4-31.4-80.3-22.1c-4,1.3-5.6-5-1.6-6.3c6.2-2,12.6-3.2,18.9-3.7c-0.7-4.2-1-8.5-1-12.9c0-45.1,36.2-81.7,81.3-81.7
		c0,0-0.3,0-0.3,0V72.9c0,0,0.3,0.1,0.3,0.1c-0.1,0,0.3,0.1,0.3,0.1H271v-0.2c0,0,0.3,0.1,0.3,0.1C186.8,73,119.1,141,118.8,226h0.2
		v284h152V374.2C270,376.7,269.2,379,267.9,381.3z"/>
	<path class="st0" d="M271.7,72.9c0.1,0,0.1,0,0.2,0h-0.3C271.6,72.9,271.6,72.9,271.7,72.9z"/>
	<path class="st2" d="M292,364.3V386c0,1.3,1.8,2,3.1,2h15.2c1.3,0,2.6-0.6,2.6-2v-21c0,0-0.3,0-0.3,0
		C305.8,365,299,365.6,292,364.3z"/>
	<path class="st2" d="M277.5,329c42.3-3.1,75.4-38.4,75.4-81.5c0-45.1-36.9-81.7-81.9-81.7v142.3C275,314.8,276.4,321.8,277.5,329z
		 M290,198.6c0.7-0.9,1.4-1.8,2.2-2.6c0.5-0.5,0.9-1,1.5-1.4c0.3-0.3,0.7-0.6,1-0.9c1.4-1.2,2.9-2.2,4.5-3.1
		c0.8-0.4,1.6-0.8,2.5-1.2c0.5-0.2,1.1-0.4,1.6-0.6c0.8-0.3,1.5-0.5,2.3-0.7c2.3-0.6,4.7-0.9,7.1-0.9c1.5,0,2.9,0.1,4.3,0.3
		c0.9,0.1,1.9,0.3,2.8,0.6c0.8,0.2,1.5,0.4,2.2,0.7c0.6,0.2,1.2,0.4,1.7,0.7c1.1,0.5,2.2,1,3.2,1.6c1,0.6,2.1,1.3,3,2
		c0.6,0.5,1.3,1,1.9,1.6c0.3,0.3,0.7,0.6,1,0.9c5.2,5.2,8.4,12.3,8.4,20.2c0,8.4-3.6,15.9-9.3,21.1c-2.4,2.1-5.1,3.9-8.1,5.2
		c-1.3,0.5-2.6,1-4,1.3c-0.9,0.2-1.8,0.4-2.8,0.6c-1.4,0.2-2.9,0.3-4.3,0.3c-3,0-5.8-0.4-8.5-1.3c-0.9-0.3-1.8-0.6-2.6-1
		c-0.9-0.4-1.7-0.8-2.5-1.2c-1.6-0.9-3.1-1.9-4.5-3.1c-0.7-0.6-1.4-1.2-2-1.8c-1-1-1.9-2-2.7-3.1c-0.5-0.7-1.1-1.5-1.5-2.3
		c-1.2-2-2.2-4.1-2.8-6.3c-0.8-2.7-1.3-5.5-1.3-8.5c0-2.8,0.4-5.6,1.2-8.2c0.1-0.2,0.1-0.4,0.2-0.6c0.7-2.1,1.6-4.1,2.7-6
		C288.9,200.1,289.4,199.3,290,198.6z"/>
	<path class="st2" d="M190.1,247.5c0,4.4,0.4,8.7,1,12.9c25.9-2,51.5,8.1,68.5,28.6c4.9,5.9,8.4,12.3,11.4,19.1V165.8
		c0,0,0.4,0,0.3,0C226.2,165.8,190.1,202.4,190.1,247.5z"/>
	<path class="st3" d="M271,317.4V333c1,5.3,1,10.6,0,16v25.3c3-5.7,4.4-11.7,5.6-17.7c4.4,4.4,10.4,6.6,15.4,7.8v-0.1
		c0-1.3,1.8-2.2,3.1-2.2h15.2c1.3,0,2.6,0.9,2.6,2.2v0.8c15,0,31,0,47,0c4,0,4-6,0-6c-15,0-28.9,0-43.4,0c-13.9,0-29.3,2.1-38-11.6
		c0.5-6.2,0.2-12.3-0.7-18.4c-1.1,0.1-2.6,0.2-3.8,0.2C273.5,325.1,272,321.2,271,317.4z"/>
	<path class="st3" d="M310.4,362h-15.2c-1.3,0-3.1,0.9-3.1,2.2v0.1c7,1.3,13.8,0.7,20.7,0.7c0.1,0,0.3,0,0.3,0v-0.8
		C313,362.9,311.7,362,310.4,362z"/>
	<path class="st3" d="M271,317.4c1,3.8,2.5,7.7,3.1,11.8c1.1,0,2-0.1,3.1-0.2c-1.1-7.2-2.2-14.2-6.2-20.9V317.4z"/>
	<g>
		<path class="st4" d="M267.9,381.3c1.3-2.3,2.1-4.7,3.1-7.1V349c-1,10.1-3.8,20-8.9,29.1C260,381.7,265.9,385,267.9,381.3z"/>
		<path class="st4" d="M259.6,289c-17-20.5-42.6-30.6-68.6-28.6v0c-7,0.5-12.6,1.7-18.8,3.7c-4,1.3-2.3,7.6,1.8,6.3
			c28.9-9.3,60.2-1,80.1,22.1c10,11.6,15.9,25.8,16.9,40.4v-15.6v-9.3C268,301.3,264.5,294.9,259.6,289z"/>
	</g>
	<path class="st5" d="M285.5,207.5c-0.8,2.6-1.2,5.3-1.2,8.2c0,3,0.4,5.8,1.3,8.5c0.7,2.2,1.7,4.3,2.8,6.3c0.5,0.8,1,1.5,1.5,2.3
		c0.8,1.1,1.7,2.1,2.7,3.1c0.6,0.6,1.3,1.3,2,1.8c1.4,1.2,2.9,2.2,4.5,3.1c0.8,0.4,1.6,0.8,2.5,1.2c0.9,0.4,1.7,0.7,2.6,1
		c2.7,0.8,5.5,1.3,8.5,1.3c1.5,0,2.9-0.1,4.3-0.3c0.9-0.1,1.9-0.3,2.8-0.6c1.4-0.4,2.7-0.8,4-1.3c3-1.3,5.7-3,8.1-5.2
		c5.7-5.2,9.3-12.7,9.3-21.1c0-7.9-3.2-15-8.4-20.2c-0.3-0.3-0.7-0.6-1-0.9c-0.6-0.5-1.2-1.1-1.9-1.6c-1-0.7-2-1.4-3-2
		c-1-0.6-2.1-1.1-3.2-1.6c-0.6-0.2-1.2-0.5-1.7-0.7c-0.7-0.3-1.5-0.5-2.2-0.7c-0.9-0.2-1.8-0.4-2.8-0.6c-1.4-0.2-2.9-0.3-4.3-0.3
		c-2.5,0-4.8,0.3-7.1,0.9c-0.8,0.2-1.6,0.4-2.3,0.7c-0.6,0.2-1.1,0.4-1.6,0.6c-0.9,0.4-1.7,0.8-2.5,1.2c-1.6,0.9-3.1,1.9-4.5,3.1
		c-0.4,0.3-0.7,0.6-1,0.9c-0.5,0.5-1,0.9-1.5,1.4c-0.8,0.8-1.5,1.7-2.2,2.6c-0.5,0.7-1.1,1.5-1.5,2.3c-1.1,1.9-2,3.9-2.7,6
		C285.6,207.1,285.6,207.3,285.5,207.5z"/>
	<path class="st6" d="M293.7,194.6c-0.5,0.5-1,0.9-1.5,1.4C292.7,195.5,293.2,195,293.7,194.6z"/>
	<path class="st6" d="M285.5,207.5c0.1-0.2,0.1-0.4,0.2-0.6C285.6,207.1,285.6,207.3,285.5,207.5z"/>
	<path class="st6" d="M332,194.6c0.3,0.3,0.7,0.6,1,0.9C332.7,195.2,332.3,194.9,332,194.6z"/>
	<path class="st6" d="M303.4,188.8c0.8-0.3,1.5-0.5,2.3-0.7C304.9,188.2,304.1,188.5,303.4,188.8z"/>
	<path class="st6" d="M320,188c0.8,0.2,1.5,0.4,2.2,0.7C321.5,188.5,320.7,188.2,320,188z"/>
	<path class="st6" d="M327.1,191c1,0.6,2.1,1.3,3,2C329.2,192.3,328.2,191.6,327.1,191z"/>
	<path class="st6" d="M294.7,193.7c1.4-1.2,2.9-2.2,4.5-3.1C297.6,191.5,296.1,192.5,294.7,193.7z"/>
	<g>
		<path class="st5" d="M105.3,58.5l91,91l75-75c0,0,0,0,0,0l1.4-1.4l-14.2-14.2C216.2,16.5,147.9,16.2,105.3,58.5z"/>
		<path class="st7" d="M105,9.7C91.6-3.7,69.6-3.4,56.4,9.7L105,58.3C118.2,45.2,118.4,23.1,105,9.7z"/>
		<path class="st8" d="M104.9,58.8c-42.4,42.4-42.5,111.3-0.1,153.7l14.2,14.2l1.4-1.4c0,0,0,0,0,0l75.8-75.8l-91-91
			C105.3,58.5,105,58.8,104.9,58.8z"/>
		<path class="st9" d="M56.4,58.3c13.4,13.4,34.7,13.9,48.6,0L56.4,9.7C42.5,23.6,43,44.9,56.4,58.3z"/>
	</g>
</g>
</svg>
