<?xml version="1.0" encoding="utf-8"?>
<!-- Generator: Adobe Illustrator 19.1.0, SVG Export Plug-In . SVG Version: 6.00 Build 0)  -->
<svg version="1.1" xmlns="http://www.w3.org/2000/svg" xmlns:xlink="http://www.w3.org/1999/xlink" x="0px" y="0px"
	 viewBox="0 0 510 510" style="enable-background:new 0 0 510 510;" xml:space="preserve">
<style type="text/css">
	.st0{fill:none;}
	.st1{opacity:0.8;}
	.st2{fill:#FFFFFF;}
	.st3{opacity:0.6;}
</style>
<g id="Layer_1">
</g>
<g id="Layer_2">
	<path class="st0" d="M274,288.5v28.5C278,307.4,277,297.8,274,288.5z"/>
	<g>
		<g class="st1">
			<path class="st2" d="M277,10.2v282.4c3,10.4,4,21.1,0,32v78.4c23,5.2,50.8,7.5,76.6,6.6c22-0.8,35.2-9.4,44.9-29.3
				c9.8-19.9,15.5-41.5,20.3-63.2c10.9-49.2,17.1-100.5,7.2-149.8C410,87.9,350,34.8,277,10.2z"/>
			<path class="st2" d="M482.1,115.4c-23.6-42.3-65.8-74.7-111.3-90.2c-6.8-2.3-14.1-5.4-21.3-6.3c-3.8-0.5-6.6,3.8-2.3,7
				c51.3,36.8,89.4,92.3,101.4,154.3c5.5,28.3,5.8,57.4,2.4,86c-1.7,14.4-4.3,28.7-7.6,42.8c-3,12.8-6.9,24.9-10.9,37.3
				c-1.7,5.2,0.5,12.7,5.9,12.5c2-0.1,3.8-1.3,5.5-2.4c4.3-3.1,8.5-6.5,12.5-10.2c33.3-30.4,51.1-76.3,53.4-120.8
				C511.8,186.4,501,149.2,482.1,115.4z"/>
		</g>
		<g class="st3">
			<path class="st2" d="M257.3,4.4c-8.8-2.3-19.5-1.4-28.5,0.7c-51.7,12-88.7,44.4-116,88.2c-6.3,10-12.8,15.5-24,17.9
				c-19.3,4-38.2,8.9-51.8,25.3C11.6,167,2.6,203.1,0.2,241.4c-0.6,8.6,0,19.8,4.9,25.9c15.5,19.6,9.9,41.1,10,62.6
				c0,9,1.5,19.6,6.3,26.8c23.8,35.2,57.1,57.9,97.9,69.5c10.7,3,17.6-1.3,20.6-11.8c1.3-4.6,2.3-9.3,3.6-13.9
				c5.5-19.9,10.8-22.9,31.3-24.9c13.8-1.3,28.5-3.9,40.3-10.4c12.7-6.9,79.1-51.5,22.2-98.9c-13.9-11.6-42.4-12.5-59.8-17.4
				c-16.4-4.6-22.7-15.6,15.9-13.2c5.9,0.4,16.2,3.3,21-0.2c4.5-3.3,2.7-12.6,3.8-18.1c2.7-14,5.2-26.8,14.5-38.3
				c2-2.4,10.9-12.5,16.9-13.9c2.3-0.6,4.2,0.2,5,3.2c0.6,2.2-0.1,4.4-0.9,6.5c-4.9,13.4-14.4,24.2-15.7,38.8
				c-1.2,13.6,4.3,26.2,12.1,37c5.9,8.2,12.4,16.3,17.8,24.8c3.5,5.5,6.1,11.2,9.1,16.9V10.2C270,8.1,263.8,6.1,257.3,4.4z"/>
			<path class="st2" d="M248.8,360.2c-4.9,5.8-17.7,16.9-15.6,25.3c1.3,5.4,7.8,8,13.1,9.6c9.9,3.1,19.7,5.6,30.7,7.7v-78.4
				c-2,2.1-2.5,4.2-3.9,6.3C266.1,341.4,257,350.6,248.8,360.2z"/>
			<path class="st2" d="M162.4,397.1c0,48.6,24.5,59.6,55,105.7c6.2,9.4,19.9,1.1,13.3-8.1c-20.5-28.6-6.3-49.6,24.7-67
				c3.4-1.9,14.5-4,20.7-8C226.2,414.1,202.9,386.5,162.4,397.1z"/>
		</g>
	</g>
</g>
</svg>
