<?xml version="1.0" encoding="utf-8"?>
<!-- Generator: Adobe Illustrator 19.1.0, SVG Export Plug-In . SVG Version: 6.00 Build 0)  -->
<svg version="1.1" id="Layer_1" xmlns="http://www.w3.org/2000/svg" xmlns:xlink="http://www.w3.org/1999/xlink" x="0px" y="0px"
	 viewBox="0 0 510 510" style="enable-background:new 0 0 510 510;" xml:space="preserve">
<style type="text/css">
	.st0{fill:#FFB600;}
	.st1{fill:#D6D6D6;}
	.st2{fill:#F772A9;}
	.st3{fill:#FF5F5F;}
	.st4{fill:#FFE7B3;}
	.st5{fill:#333333;}
	.st6{fill:#FF9D00;}
	.st7{fill:#BABABA;}
	.st8{fill:#EA5E96;}
	.st9{fill:#E85252;}
	.st10{fill:#262626;}
	.st11{fill:#EDD6A6;}
	.st12{fill:#DAF1F2;}
	.st13{fill:#EEFFFF;}
	.st14{opacity:0.6;}
	.st15{fill:#62AAF9;}
	.st16{opacity:0.6;fill:#F76363;}
	.st17{font-family:'FredokaOne-Regular';}
	.st18{font-size:153.913px;}
</style>
<g>
	<g>
		<path class="st0" d="M467.5,168h2.7c4.1,0,7.5,3.3,7.5,7.5V198c0,4.1-3.3,7.5-7.5,7.5h-2.7v194.8h0l4.1-4.9l4.1,4.9h0l4.1-4.9
			l4.1,4.9h0V147.8h-16.2V168z"/>
		<rect x="467.5" y="134.7" class="st1" width="16.2" height="13.1"/>
		<polygon class="st1" points="467.5,115.1 467.5,128.2 483.7,128.2 483.7,115.1 477.4,115.1 		"/>
		<path class="st2" d="M483.5,90c-0.6-2.8-3.1-4.9-6.1-4.9h-10v30h10h6.3v-6.3V91.3V90H483.5z"/>
		<rect x="467.5" y="128.2" class="st3" width="16.2" height="6.5"/>
		<polygon class="st4" points="467.5,400.3 467.5,418.6 470.9,418.6 467.5,423.4 483.7,400.3 475.6,400.3 		"/>
		<polygon class="st4" points="475.6,400.3 475.6,400.3 475.6,400.3 		"/>
		<polygon class="st4" points="483.7,400.3 483.7,400.3 483.7,400.3 		"/>
		<polygon class="st4" points="467.5,400.3 467.5,400.3 467.5,400.3 		"/>
		<polygon class="st5" points="467.5,418.6 467.5,423.4 470.9,418.6 		"/>
		<polygon class="st4" points="471.5,395.4 467.5,400.3 475.6,400.3 		"/>
		<rect x="471.5" y="396.3" class="st4" width="0" height="8.1"/>
		<polygon class="st4" points="483.7,400.3 483.7,400.3 483.7,400.3 		"/>
		<polygon class="st4" points="479.6,395.4 475.6,400.3 483.7,400.3 		"/>
		<polygon class="st4" points="475.6,400.3 475.6,400.3 483.7,400.3 483.7,400.3 483.7,400.3 		"/>
		<path class="st3" d="M470.1,205.5c4.1,0,7.5-3.3,7.5-7.5v-22.6c0-4.1-3.3-7.5-7.5-7.5h-2.7v37.5H470.1z"/>
		<path class="st6" d="M451.2,400.3L451.2,400.3l4.1-4.9l4.1,4.9h0l4.1-4.9l4.1,4.9h0V205.5h-2.7c-4.1,0-7.5-3.3-7.5-7.5v-22.6
			c0-4.1,3.3-7.5,7.5-7.5h2.7v-20.2h-16.2V400.3z"/>
		<rect x="451.2" y="134.7" class="st7" width="16.2" height="13.1"/>
		<polygon class="st7" points="451.2,115.1 451.2,128.2 467.5,128.2 467.5,115.1 457.5,115.1 		"/>
		<path class="st8" d="M451.4,90h-0.2v1.4v17.5v6.3h6.3h10V85h-10C454.5,85,452,87.1,451.4,90z"/>
		<rect x="451.2" y="128.2" class="st9" width="16.2" height="6.5"/>
		<polygon class="st4" points="451.2,400.3 451.2,400.3 451.2,400.3 		"/>
		<polygon class="st4" points="459.3,400.3 459.3,400.3 459.3,400.3 		"/>
		<polygon class="st4" points="467.5,400.3 467.5,400.3 467.5,400.3 		"/>
		<polygon class="st5" points="464,418.6 467.5,423.4 464,418.6 		"/>
		<polygon class="st10" points="464,418.6 467.5,423.4 467.5,418.6 		"/>
		<polygon class="st4" points="451.2,400.3 451.2,400.3 451.2,400.3 		"/>
		<polygon class="st4" points="459.3,400.3 451.2,400.3 451.2,400.3 451.2,400.3 459.3,400.3 		"/>
		<g>
			<polygon class="st11" points="459.3,400.3 451.2,400.3 464,418.6 467.5,418.6 467.5,400.3 			"/>
			<polygon class="st11" points="455.3,395.4 451.2,400.3 459.3,400.3 			"/>
			<polygon class="st11" points="463.4,395.4 459.3,400.3 467.5,400.3 			"/>
		</g>
		<rect x="463.4" y="396.3" class="st4" width="0" height="8.1"/>
		<path class="st9" d="M457.3,175.5V198c0,4.1,3.3,7.5,7.5,7.5h2.7V168h-2.7C460.7,168,457.3,171.4,457.3,175.5z"/>
	</g>
	<g>
		<rect x="26.4" y="-0.8" class="st12" width="197" height="510"/>
		<rect x="223.5" y="-0.8" class="st13" width="197" height="510"/>
		<g class="st14">
			<rect x="26.4" y="70.8" class="st15" width="394.1" height="2.3"/>
			<rect x="26.4" y="101.7" class="st15" width="394.1" height="2.3"/>
			<rect x="26.4" y="132.6" class="st15" width="394.1" height="2.3"/>
			<rect x="26.4" y="163.5" class="st15" width="394.1" height="2.3"/>
			<rect x="26.4" y="194.4" class="st15" width="394.1" height="2.3"/>
			<rect x="26.4" y="225.3" class="st15" width="394.1" height="2.3"/>
			<rect x="26.4" y="256.2" class="st15" width="394.1" height="2.3"/>
			<rect x="26.4" y="287.1" class="st15" width="394.1" height="2.3"/>
			<rect x="26.4" y="318" class="st15" width="394.1" height="2.3"/>
			<rect x="26.4" y="348.9" class="st15" width="394.1" height="2.3"/>
			<rect x="26.4" y="379.9" class="st15" width="394.1" height="2.3"/>
			<rect x="26.4" y="410.8" class="st15" width="394.1" height="2.3"/>
			<rect x="26.4" y="441.7" class="st15" width="394.1" height="2.3"/>
			<rect x="26.4" y="472.6" class="st15" width="394.1" height="2.3"/>
			<rect x="26.4" y="503.5" class="st15" width="394.1" height="2.3"/>
		</g>
		<rect x="56.2" y="-0.8" class="st16" width="2.3" height="510"/>
		<text transform="matrix(1 0 0 1 52.4227 302.7623)" class="st5 st17 st18">2+2=</text>
	</g>
</g>
</svg>
