<?xml version="1.0" encoding="utf-8"?>
<!-- Generator: Adobe Illustrator 19.1.0, SVG Export Plug-In . SVG Version: 6.00 Build 0)  -->
<svg version="1.1" id="Layer_1" xmlns="http://www.w3.org/2000/svg" xmlns:xlink="http://www.w3.org/1999/xlink" x="0px" y="0px"
	 viewBox="0 0 510 510" style="enable-background:new 0 0 510 510;" xml:space="preserve">
<style type="text/css">
	.st0{fill:#9BCE59;}
	.st1{fill:#FFFFFF;}
	.st2{fill:#33353D;}
	.st3{fill:#5B3793;}
	.st4{fill:#9815FF;}
	.st5{fill:#BC2E2E;}
	.st6{fill:#FF3131;}
	.st7{fill:#80B23F;}
	.st8{fill:#534072;}
	.st9{fill:#AA2626;}
	.st10{fill:#EA2F2F;}
</style>
<g>
	<path class="st0" d="M358.9,200.9C358.9,200.9,358.9,200.9,358.9,200.9c-7.2-1.9-10.7-10.1-10.7-21.7c0,0-0.2,0-0.2,0v-62.6
		c0-4.9-0.4-9.7-1.2-14.3C316.9,88.8,288,84.9,258,89.9v33.7c30,0,53.8,24.1,53.8,53.8c0,29.7-23.8,53.8-53.8,53.8v34.7
		c26,4.7,51-0.1,78.4-12.1c-19.7,36.5-46.4,79.3-78.4,83.6V510h32V382.3c0-5.5,0.7-9.1,6.7-13.7c25.4-16.3,49.1-45.1,62.6-71.9
		c0,0,0.1,0,0.1,0c0.2-0.4,0.4-0.8,0.6-1.2c0-0.1,0.1-0.1,0.1-0.2c3.6-7,10.4-16.8,14.3-19.7c0.1-0.1,0.2-0.2,0.3-0.2
		c10-7.7,16.4-19.8,16.4-33.4C391,222.2,377.4,205.5,358.9,200.9z"/>
	<path class="st1" d="M311.8,177.4c0-29.7-23.8-53.8-53.8-53.8v107.6C288,231.2,311.8,207.1,311.8,177.4z M285.5,137.7
		c10.4,0,18.8,8.4,18.8,18.8c0,10.4-8.4,18.8-18.8,18.8c-10.4,0-18.8-8.4-18.8-18.8C266.7,146.1,275.1,137.7,285.5,137.7z"/>
	<circle class="st2" cx="285.5" cy="156.4" r="18.8"/>
	<path class="st3" d="M336.4,253.8c-27.4,12-52.4,16.7-78.4,12.1v71.5C290,333.1,316.7,290.3,336.4,253.8z"/>
	<path class="st4" d="M188,281.4c9.9,21,25.6,40.5,49.4,53.3c6.9,3.7,13.8,5.1,20.5,4.7c0-0.3,0-0.6,0-1
		C259.4,284,212,276.1,188,281.4z"/>
	<path class="st5" d="M258,0.1v30.7v27.7v23.3c29-5.1,57.6-1.6,86.9,11.1c-3.7-13-10.3-24.8-19.3-34.5c8.9,9.7,15.5,21.4,19.3,34.5
		c1.1,0.5,2.2,1,3.2,1.5v-36C348,38.2,326,0.3,258,0.1z"/>
	<g>
		<path class="st6" d="M292.2,80.8l54.7,19.8c-0.5-2.6-1.3-5.1-2-7.6C315.6,80.2,287,76.8,258,81.9V88v2c30-5,59.1-1.1,89,12.5
			c-0.1-0.6-0.1-1.2-0.2-1.8L292.2,80.8z"/>
		<path class="st6" d="M367.7,104.6c-6.5-3.8-12.9-7.2-19.3-10.2c-1.1-0.5-2.2-1-3.3-1.5c0.7,2.5,1.3,5,1.8,7.6
			c0.1,0.6,0.2,1.2,0.3,1.8c6.1,2.8,12.3,6,18.5,9.6c2.6,1.5,5.1,1.2,5.7-0.8C372,109.2,370.3,106.2,367.7,104.6z"/>
	</g>
	<path class="st7" d="M256.2,337.7c-6.5,0.4-13-1-19.7-4.5c-23-12.1-38.2-30.5-47.7-50.3c-12.1-25.1-15.1-52.5-13.3-72.1
		c27.9,32.5,55.5,49.7,83.5,55v-34.7c-29,0-53.8-24.1-53.8-53.8c0-29.7,24.8-53.8,53.8-53.8V89.8c-19,3.3-38.9,9.2-58.8,19.8
		c-2.5,1.3-4.6,2.4-5.3,0.8l-26.5,0.1c-0.2,2.1-0.4,4.2-0.4,6.3v44.7l0.2,0c0,4.6,0.4,12.7-7.4,11.5c-0.1,0-0.2,0-0.3,0
		c-2.7-0.7-5.5-1.1-8.5-1.1c-18.4,0-33.4,15-33.4,33.4c0,51.7,40.6,136.3,98.6,166c0,0-0.2,0-0.1,0c7.7,4.4,9,9.7,9,18.6V510h33
		V337.4C258,337.5,257.2,337.6,256.2,337.7z"/>
	<path class="st1" d="M204.2,177.4c0,29.7,24.8,53.8,53.8,53.8V123.6C229,123.6,204.2,147.7,204.2,177.4z"/>
	<path class="st8" d="M175.6,210.9c-1.8,19.6,1.3,47,13.3,72.1c23.1-5,69.1,2.5,67.6,53.8c0,0.3-0.2,0.6-0.3,0.9
		c1-0.1,2.7-0.2,2.7-0.3v-71.5C231,260.6,203.5,243.4,175.6,210.9z"/>
	<path class="st9" d="M257.8,0.4c-68.3,0-90,37.6-90,58.6h0.2v52h-0.2l26.4-0.4c0-0.1-0.1-0.2-0.1-0.3c-0.5-1.8,1-4.6,3.6-6
		C218.3,93,239,85.4,258,81.9V58.5V30.8V0.1C258,0.1,257.9,0.4,257.8,0.4z"/>
	<path class="st10" d="M197.8,104.2c-2.7,1.5-4.3,4.2-3.8,6c0,0.1,0.1,0.1,0.1,0.1l2.6,0l34.4-16.6l-34.4,16.6l-2.6,0
		c0.6,1.6,2.9,1.9,5.4,0.5c19.9-10.6,39.4-17.7,58.4-21v-2v-6.1C239,85.4,218.3,92.9,197.8,104.2z"/>
</g>
</svg>
