<?xml version="1.0" encoding="utf-8"?>
<!-- Generator: Adobe Illustrator 19.1.0, SVG Export Plug-In . SVG Version: 6.00 Build 0)  -->
<svg version="1.1" xmlns="http://www.w3.org/2000/svg" xmlns:xlink="http://www.w3.org/1999/xlink" x="0px" y="0px"
	 viewBox="0 0 510 510" style="enable-background:new 0 0 510 510;" xml:space="preserve">
<style type="text/css">
	.st0{fill:#FFFFFF;}
	.st1{fill:#F2F2F2;}
	.st2{fill:#80BCAF;}
	.st3{fill:#B5B5B5;}
	.st4{fill:#6589C6;}
	.st5{fill:#CECECE;}
	.st6{fill:#95D3C8;}
	.st7{fill:#F27274;}
	.st8{fill:#CE494F;}
</style>
<g id="Layer_2">
	<g>
		<polygon class="st0" points="352,4.6 352,102.9 352,121.8 399,116.2 399,9.2 352,3.5 		"/>
		<path class="st0" d="M348,19.3c-2-4.8-6.6-9.6-14.1-9.6c-10.4-0.1-23.1,7.1-24.3,21c12.3-9,21.8,3.5,5.6,22.9
			c-10.7,12.8-16.5,38.6-1.2,54.7c11.2,11.8,29,6.7,34-1.2V19.3z"/>
		<polygon class="st1" points="283.4,134.1 283.2,134.1 199.9,134.1 199.6,134.1 199.6,162.7 255.2,162.7 289.2,463.1 199.6,463.1 
			199.6,494.4 199.9,494.4 200.9,494.4 207.9,494.4 324.1,494.4 324.1,494.4 		"/>
		<polygon class="st2" points="289.2,463.1 255.2,162.7 199.6,162.7 199.6,463.1 		"/>
		<polygon class="st3" points="199.9,134.1 283.2,134.1 233,109.1 199.9,109.1 199.6,109.1 199.6,134.1 		"/>
		<path class="st4" d="M348,104.2c-27,3.4-33.2-29.6-14.4-58.7c5.9-9.1,3.5-22.2-3.5-25.2c-10.6-4.7-18.4,3.7-20.5,10.4
			c12.3-9,21.7,3.5,5.6,22.9c-10.7,12.8-16.2,38.6-0.9,54.7c10.8,11.4,27.7,7.1,33.7-0.3V104.2z"/>
		<polygon class="st5" points="201.9,95.9 231.1,95.9 223.2,36.4 201.9,36.4 199.6,36.4 199.6,95.9 		"/>
		<polygon class="st0" points="111,134.1 76.4,494.4 199.6,494.4 199.6,463.1 110,463.1 139,162.7 199.6,162.7 199.6,134.1 
			112.2,134.1 		"/>
		<polygon class="st6" points="110,463.1 199.6,463.1 199.6,162.7 139,162.7 		"/>
		<polygon class="st5" points="112.2,134.1 199.6,134.1 199.6,109.1 161.2,109.1 		"/>
		<polygon class="st0" points="176.1,36.4 168.1,95.9 197.3,95.9 199.6,95.9 199.6,36.4 197.3,36.4 		"/>
		<polygon class="st7" points="405.5,0 405.5,128.3 406.1,128.3 419.6,453.1 419.6,0 		"/>
		<polygon class="st8" points="433.6,510 433.6,130.4 433.6,129.2 433.6,0 419.6,0 419.6,453.1 421.9,510 		"/>
	</g>
</g>
<g id="Layer_3">
</g>
</svg>
