<?xml version="1.0" encoding="utf-8"?>
<!-- Generator: Adobe Illustrator 19.1.0, SVG Export Plug-In . SVG Version: 6.00 Build 0)  -->
<svg version="1.1" id="Layer_1" xmlns="http://www.w3.org/2000/svg" xmlns:xlink="http://www.w3.org/1999/xlink" x="0px" y="0px"
	 viewBox="0 0 510 510" style="enable-background:new 0 0 510 510;" xml:space="preserve">
<style type="text/css">
	.st0{fill:#58B68D;}
	.st1{fill:#4FA27E;}
	.st2{fill:#54AC85;}
	.st3{fill:#48A57C;}
	.st4{opacity:0.14;fill:#231F20;}
	.st5{fill:#C8E9F4;}
	.st6{fill:#D6EFF8;}
	.st7{fill:#77BED3;}
	.st8{fill:#66ADBE;}
	.st9{fill:#9FC7D0;}
</style>
<g>
	<g>
		<polygon class="st0" points="20.3,86.9 75.5,489.1 172.4,489.1 172.4,86.9 		"/>
		<rect x="9.7" y="74" class="st1" width="162.7" height="12.9"/>
		<rect x="-0.1" y="51.5" class="st2" width="172.5" height="22.5"/>
		<path class="st0" d="M119.9,26L111,0c-8.1,0-16.4,0-24.4,0C46.4,0,31.7,24.7,31.7,24.7L14.3,52H172V26H119.9z"/>
		<polygon class="st0" points="322.8,86 267.6,489 172,489 172,86 		"/>
		<rect x="172" y="74" class="st1" width="160" height="12"/>
		<rect x="172" y="52" class="st2" width="171" height="22"/>
		<path class="st0" d="M223.3,26l8.9-26c8.1,0,16.4,0,24.4,0c40.2,0,54.8,24.7,54.8,24.7L329,52H172V26H223.3z"/>
		<path class="st3" d="M172.4,146.5c-45.6,0-74.1,19.3-74.1,19.3l9.7,91.7h64.4V146.5z"/>
		<path class="st4" d="M171.8,51.5V25.8h-52.1L110.8,0c-8.1,0-16.4,0-24.4,0C46.2,0,31.5,24.5,31.5,24.5L14,51.5H-0.1V74h9.8v12.9
			h10.6l55.1,402.2h97V257.4v-111V86.9V74V51.5H171.8z"/>
		<path class="st3" d="M172,146.1c44,0,73.4,19.2,73.4,19.2L235,257h-63V146.1z"/>
	</g>
	<g>
		<path class="st5" d="M345,137.5l-16.2-0.1c-40.6,23.2-99.6,44.2-114.1,105.7c-14.6,61.5-34.8,182.4-34.8,193.5
			c0,11.1,37.1,73.5,165.1,73.5V137.5z"/>
		<path class="st6" d="M345,137.5l16.2-0.1c40.6,23.2,99.6,44.2,114.2,105.7c14.6,61.5,34.8,182.4,34.8,193.5
			c0,11.1-38.2,73.5-165.2,73.5V137.5z"/>
		<path class="st7" d="M344.7,141.8c0.1,0,0.1,0,0.2,0c8.6,0,19.5-2.8,19.5-2.8l0.7-3.3l-20.4-6.4V141.8z"/>
		<path class="st5" d="M409.3,82.4c-16.5-33.4-49.9-6.9-64.6-21.5v39.8l28.7,0.4c0,0,0.1,0.1,0.2,0.3
			C380.3,86.5,394.1,85.4,409.3,82.4z"/>
		<path class="st6" d="M373.6,101.5c-0.1-0.2-0.2-0.3-0.2-0.3l-28.7-0.4v3.3v6.9v18.5l20.4,6.4l2.6,0.8c0,0,6.8-4.8,8.7-16.8
			C378.1,109.3,374.5,102.9,373.6,101.5z"/>
		<path class="st8" d="M322,122.2l3.7,16.7c0,0,10.4,2.8,19,2.8v-12.4L322,122.2z"/>
		<path class="st9" d="M290.1,38.8c6.5,2.3,26.4,33.7,32.8,61.5l21.8,0.3V60.9c-0.2-0.2-0.3-0.3-0.5-0.5
			C325.6,40.3,311.2,38.1,290.1,38.8z"/>
		<path class="st5" d="M322.9,100.3l-4.8-0.1c0,0-3.8,0.4-5.2,9.3c-1.4,8.9,2,10.5,2,10.5l7.1,2.2l22.7,7.1v-18.5v-6.9v-3.3
			L322.9,100.3z"/>
	</g>
</g>
</svg>
