<?xml version="1.0" encoding="utf-8"?>
<!-- Generator: Adobe Illustrator 19.1.0, SVG Export Plug-In . SVG Version: 6.00 Build 0)  -->
<svg version="1.1" id="Layer_1" xmlns="http://www.w3.org/2000/svg" xmlns:xlink="http://www.w3.org/1999/xlink" x="0px" y="0px"
	 viewBox="0 0 510 510" style="enable-background:new 0 0 510 510;" xml:space="preserve">
<style type="text/css">
	.st0{fill:#DC3656;}
	.st1{fill:#25263A;}
	.st2{fill:#C1294D;}
	.st3{fill:none;}
	.st4{fill:#B3EBFF;}
	.st5{fill:#D8D8D8;}
	.st6{fill:#AAAAAA;}
	.st7{fill:#C12B4F;}
	.st8{fill:#A52147;}
</style>
<g>
	<path class="st0" d="M316,402.3c1.5,0,2.7,1.2,2.7,2.7c0,1.5-1.2,2.7-2.7,2.7h-33.1v2.7H316c1.5,0,2.7,1.2,2.7,2.7
		s-1.2,2.7-2.7,2.7h-33.1v2.7H316c1.5,0,2.7,1.2,2.7,2.7c0,1.5-1.2,2.7-2.7,2.7h-33.1v2.7H316c1.5,0,2.7,1.2,2.7,2.7
		c0,1.5-1.2,2.7-2.7,2.7h-33.1v14.6h190.6l-21.4-23.4l-3.2-1v0.2l-27.8-8.9l-27.7-8.7l-56.8-56.8h-53.6v54.2H316z"/>
	<polygon class="st1" points="448.9,403.1 408.5,403.1 408.5,409.6 421,413.6 448.9,422.3 	"/>
	<polygon class="st1" points="448.9,422.3 421,413.6 448.9,422.5 	"/>
	<g>
		<polygon class="st2" points="480.4,446.7 473.5,446.7 282.9,446.7 282.9,498.5 506.3,498.5 506.3,479.9 		"/>
		<path class="st2" d="M318.7,405c0-1.5-1.2-2.7-2.7-2.7h-33.1v5.4H316C317.5,407.7,318.7,406.5,318.7,405z"/>
		<path class="st2" d="M318.7,413.2c0-1.5-1.2-2.7-2.7-2.7h-33.1v5.4H316C317.5,415.9,318.7,414.7,318.7,413.2z"/>
		<path class="st2" d="M318.7,421.3c0-1.5-1.2-2.7-2.7-2.7h-33.1v5.4H316C317.5,424,318.7,422.8,318.7,421.3z"/>
		<path class="st2" d="M318.7,429.5c0-1.5-1.2-2.7-2.7-2.7h-33.1v5.4H316C317.5,432.2,318.7,431,318.7,429.5z"/>
	</g>
	<path class="st3" d="M202.7,351.6c-4.3-9.3-8.3-18.8-12.5-28c-11.8-25.7-23.5-51.3-35.3-77c-13.6-29.7-27.2-59.4-40.8-89.1
		c-11.2-24.5-22.5-49.1-33.7-73.6c-3.6-7.8-7.2-15.7-10.8-23.5v52.1c12.2,28.2,104.3,235.7,104.3,235.7l34.8,35.8l-7.3-31.7
		L202.7,351.6z"/>
	<path class="st1" d="M30.8,3.8c-1.2-0.6-2.5-1.2-3.7-1.9C19.8-1.8,9.8-0.2,5.7,7.5C1.9,14.7,3.5,25,11.3,29
		c16.9,8.6,33.8,17.1,50.7,25.7l0.5-0.9l13.6-25.7l0.6-1.1C61.4,19.3,46.1,11.6,30.8,3.8z"/>
	<path class="st4" d="M208.7,383.9l-34.8-35.8c0,0-92.1-207.5-104.3-235.7V60.3c-0.5-1.2-1.1-2.3-1.6-3.5c0-0.1-0.1-0.2-0.1-0.3
		c-0.7-0.4-1.4-0.7-2.2-1.1h-0.1v56.4c-11.7,10.7-27.2,33.2-35.7,54.7c2.7,14.6,56.6,179.5,59.3,187.5c2.3,6.9,85.6,36.8,109,45.1
		l11.5-11.4L208.7,383.9z"/>
	<path class="st5" d="M213.2,304.2c-14.7-32.2-29.5-64.4-44.2-96.6c-15.7-34.3-31.4-68.6-47.1-102.9c-9.5-20.8-19.1-41.7-28.6-62.5
		c-0.6-1.2-1-2.5-1.7-3.7c-2.8-5.1-9.2-7.3-14.1-9.7c-0.4-0.2-0.8-0.4-1.3-0.6L62.5,53.8c1.1,0.5,2.1,1.1,3.2,1.6
		c0.8,0.4,1.5,0.8,2.2,1.1c0,0.1,0.1,0.2,0.1,0.3c0.5,1.2,1.1,2.3,1.6,3.5c3.6,7.8,7.2,15.7,10.8,23.5
		c11.2,24.5,22.5,49.1,33.7,73.6c13.6,29.7,27.2,59.4,40.8,89.1c11.8,25.7,23.5,51.3,35.3,77c4.2,9.3,8.2,18.8,12.5,28l3.2-1.5
		l20-9.4l3.3-1.6C223.9,327.4,218.5,315.8,213.2,304.2z"/>
	<polygon class="st6" points="230.4,338.5 229.2,339.1 225.9,340.6 205.9,350.1 202.7,351.6 201.4,352.2 208.7,383.9 211,386.3 
		242.7,354.6 	"/>
	<polygon class="st6" points="208.7,383.9 209.6,387.7 211,386.3 	"/>
	<path class="st7" d="M249.8,402.3h33.1v-54.2h-33.7l-6.5,6.5L211,386.3l-1.4,1.4l-11.5,11.4l-24.2,24.1l0.1,23.4h21.7h87.2v-14.6
		h-33.1c-1.5,0-2.7-1.2-2.7-2.7c0-1.5,1.2-2.7,2.7-2.7h33.1V424h-33.1c-1.5,0-2.7-1.2-2.7-2.7c0-1.5,1.2-2.7,2.7-2.7h33.1v-2.7
		h-33.1c-1.5,0-2.7-1.2-2.7-2.7s1.2-2.7,2.7-2.7h33.1v-2.7h-33.1c-1.5,0-2.7-1.2-2.7-2.7C247.1,403.5,248.3,402.3,249.8,402.3z"/>
	<path class="st1" d="M195.7,446.7c-17.5,0-31.6,14.2-31.6,31.6c0,7.6,2.7,14.6,7.2,20.1c5.8,7,14.6,11.5,24.4,11.5
		c9.8,0,18.6-4.5,24.4-11.5c4.5-5.5,7.2-12.5,7.2-20.1C227.4,460.9,213.2,446.7,195.7,446.7z"/>
	<g>
		<path class="st8" d="M247.1,421.3c0,1.5,1.2,2.7,2.7,2.7h33.1v-5.4h-33.1C248.3,418.6,247.1,419.8,247.1,421.3z"/>
		<path class="st8" d="M227.4,478.4c0,7.6-2.7,14.6-7.2,20.1h62.8v-51.7h-87.2C213.2,446.7,227.4,460.9,227.4,478.4z"/>
		<path class="st8" d="M166.8,446.7l-19.4,19.4v32.3h24c-4.5-5.5-7.2-12.5-7.2-20.1c0-17.5,14.2-31.6,31.6-31.6H174H166.8z"/>
		<path class="st8" d="M249.8,402.3c-1.5,0-2.7,1.2-2.7,2.7c0,1.5,1.2,2.7,2.7,2.7h33.1v-5.4H249.8z"/>
		<path class="st8" d="M247.1,413.2c0,1.5,1.2,2.7,2.7,2.7h33.1v-5.4h-33.1C248.3,410.4,247.1,411.7,247.1,413.2z"/>
		<path class="st8" d="M247.1,429.5c0,1.5,1.2,2.7,2.7,2.7h33.1v-5.4h-33.1C248.3,426.8,247.1,428,247.1,429.5z"/>
	</g>
</g>
</svg>
