<?xml version="1.0" encoding="utf-8"?>
<!-- Generator: Adobe Illustrator 19.1.0, SVG Export Plug-In . SVG Version: 6.00 Build 0)  -->
<svg version="1.1" xmlns="http://www.w3.org/2000/svg" xmlns:xlink="http://www.w3.org/1999/xlink" x="0px" y="0px"
	 viewBox="0 0 510 510" style="enable-background:new 0 0 510 510;" xml:space="preserve">
<style type="text/css">
	.st0{fill:#E2E2E2;}
	.st1{fill:#FFFFFF;}
	.st2{fill:#848D9B;}
	.st3{fill:#EFEFEF;}
	.st4{fill:#B6F8FF;}
	.st5{fill:#D9FDFF;}
	.st6{fill:#C4C4C4;}
	.st7{fill:#EAEAEA;}
	.st8{fill:#777D87;}
	.st9{fill:#8EDCEF;}
	.st10{fill:#CEEFEF;}
</style>
<g id="Layer_1">
	<g>
		<path class="st0" d="M473,0H255v81h232V12.9C487,5.5,480.4,0,473,0z M443.6,68.4l0.1,1.6h-6h-1.2c-1.2,1-2.4,0.3-3.7,0.3
			s-2.5,0.7-3.7-0.3h-0.4h-6l0.1-1.3c-11.6-4.1-19.9-15-19.9-28.1c0-14.7,10.6-26.8,24.5-29.4l0.1-1.3h1.2h9h1.2l0.1,1.5
			c13.5,2.9,23.7,14.8,23.7,29.2C462.7,53.4,454.8,64.1,443.6,68.4z"/>
		<path class="st1" d="M255,122.3c95.9,0,173.7,77.8,173.7,173.7c0,95.9-77.8,173.7-173.7,173.7V510h218c7.4,0,14-6,14-13.4V111.2
			V95.3V81H255V122.3z"/>
		<path class="st2" d="M392,296c0,13.7-2,27-5.8,39.5c-1.5,5-3.3,10-5.4,14.8c-1.9,4.5-4.1,8.8-6.5,13.1
			c-17.2,30.5-45.7,53.7-79.9,64c-12.5,3.8-25.7,5.8-39.5,5.8v36.7c95.9,0,173.7-77.8,173.7-173.7c0-95.9-77.8-173.7-173.7-173.7
			v36.7C330.7,158.9,392,220.3,392,296z"/>
		<path class="st1" d="M432.8,70.3c1.3,0,2.5,0.7,3.7-0.3h-7.4C430.4,71,431.6,70.3,432.8,70.3z"/>
		<path class="st1" d="M439,11.5l4.6,57.1c11.2-4.3,19.1-15.2,19.1-27.9C462.7,26.4,452.6,14.4,439,11.5z"/>
		<path class="st1" d="M402.9,40.8c0,13,8.3,24,19.9,28.2l4.6-57.6C413.5,13.9,402.9,26.1,402.9,40.8z"/>
		<path class="st3" d="M422.7,70h6h0.4c-2.2,0-4.3-0.8-6.3-1.5L422.7,70z"/>
		<path class="st3" d="M439,11.5l-0.1-1.5h-1.2h-9h-1.2l-0.1,1.4c1.7-0.3,3.5-0.5,5.4-0.5C435,10.8,437,11.1,439,11.5z"/>
		<path class="st3" d="M437.7,70h6l-0.1-1.8c-2.2,0.9-4.6,1.8-7.1,1.8H437.7z"/>
		<path class="st3" d="M432.8,10.9c-1.8,0-3.6,0.2-5.4,0.5l-4.6,57.3c2,0.7,4.1,1.3,6.3,1.3h7.4c2.5,0,4.8-0.7,7.1-1.6l-4.6-57
			C437,11,435,10.9,432.8,10.9z"/>
		<path class="st4" d="M386.2,335.4c3.8-12.5,5.8-25.7,5.8-39.5c0-75.7-61.3-137-137-137v45.2L386.2,335.4z"/>
		<path class="st4" d="M255,243.9l119.4,119.4c2.4-4.2,4.6-8.6,6.5-13.1L255,224.3V243.9z"/>
		<path class="st4" d="M255,387.7V433c13.7,0,27-2,39.5-5.8L255,387.7z"/>
		<path class="st5" d="M255,387.7l39.5,39.5c34.2-10.3,62.7-33.5,79.9-64L255,243.9V387.7z"/>
		<path class="st5" d="M255,224.3l125.9,125.9c2.1-4.8,3.9-9.7,5.4-14.8L255,204.2V224.3z"/>
		<path class="st6" d="M23,12.9V81h232V0H37C29.6,0,23,5.5,23,12.9z"/>
		<path class="st7" d="M81.3,296c0-95.9,77.8-173.7,173.7-173.7V81H23v14.3v15.8v385.4c0,7.4,6.6,13.4,14,13.4h218v-40.3
			C159.1,469.7,81.3,391.9,81.3,296z"/>
		<path class="st8" d="M81.3,296c0,95.9,77.8,173.7,173.7,173.7V433c-75.7,0-137-61.3-137-137c0-13.7,2-27,5.8-39.5
			c10.3-34.2,33.5-62.7,64-79.9c4.2-2.4,8.6-4.6,13.1-6.5c4.8-2.1,9.7-3.9,14.8-5.4c12.5-3.8,25.7-5.8,39.5-5.8v-36.7
			C159.1,122.3,81.3,200,81.3,296z"/>
		<g>
			<path class="st9" d="M255,158.9c-13.7,0-27,2-39.5,5.8l39.5,39.5V158.9z"/>
			<path class="st9" d="M255,224.3l-54.2-54.2c-4.5,1.9-8.8,4.1-13.1,6.5l67.3,67.3V224.3z"/>
			<path class="st9" d="M123.8,256.5C120,269,118,282.2,118,296c0,75.7,61.3,137,137,137v-45.2L123.8,256.5z"/>
		</g>
		<path class="st10" d="M255,243.9l-67.3-67.3c-30.5,17.2-53.7,45.7-64,79.9L255,387.7V243.9z"/>
		<path class="st10" d="M255,204.2l-39.5-39.5c-5,1.5-10,3.3-14.8,5.4l54.2,54.2V204.2z"/>
	</g>
</g>
<g id="Layer_2">
</g>
</svg>
