<?xml version="1.0" encoding="utf-8"?>
<!-- Generator: Adobe Illustrator 19.1.0, SVG Export Plug-In . SVG Version: 6.00 Build 0)  -->
<svg version="1.1" id="Layer_1" xmlns="http://www.w3.org/2000/svg" xmlns:xlink="http://www.w3.org/1999/xlink" x="0px" y="0px"
	 viewBox="0 0 510 510" style="enable-background:new 0 0 510 510;" xml:space="preserve">
<style type="text/css">
	.st0{fill:#FFFFFF;}
	.st1{fill:#AEAEAF;}
	.st2{fill:#D1D1D1;}
	.st3{fill:#F2F2F2;}
	.st4{fill:#B7E3F1;}
	.st5{fill:#E4F4FB;}
	.st6{fill:#EE3F3F;}
	.st7{fill:#BF3232;}
	.st8{fill:#D53A3A;}
	.st9{fill:#A52D2D;}
	.st10{fill:#FFE551;}
</style>
<g>
	<rect x="24.8" y="128" class="st0" width="237.9" height="285.3"/>
	<rect x="263.1" y="83.5" class="st1" width="246.9" height="44.4"/>
	<rect y="83.5" class="st2" width="263.1" height="44.4"/>
	<rect x="263.1" y="413.2" class="st1" width="246.9" height="14.9"/>
	<rect y="413.2" class="st2" width="263.1" height="14.9"/>
	<rect x="262.7" y="128" class="st3" width="222.4" height="285.3"/>
	<g>
		<g>
			<polygon class="st4" points="38.2,398.6 166.2,398.6 38.2,270.6 			"/>
			<polygon class="st4" points="86.1,142.6 249.4,305.9 249.4,142.6 			"/>
			<polygon class="st4" points="38.2,142.6 38.2,159.7 249.4,370.9 249.4,343.9 48.1,142.6 			"/>
		</g>
		<g>
			<polygon class="st5" points="38.2,270.6 166.2,398.6 249.4,398.6 249.4,370.9 38.2,159.7 			"/>
			<polygon class="st5" points="86.1,142.6 48.1,142.6 249.4,343.9 249.4,305.9 			"/>
		</g>
	</g>
	<g>
		<g>
			<polygon class="st4" points="276.3,398.6 394.6,398.6 276.3,270.6 			"/>
			<polygon class="st4" points="320.6,142.6 471.5,305.9 471.5,142.6 			"/>
			<polygon class="st4" points="276.3,142.6 276.3,159.7 471.5,370.9 471.5,343.9 285.4,142.6 			"/>
		</g>
		<g>
			<polygon class="st5" points="276.3,270.6 394.6,398.6 471.5,398.6 471.5,370.9 276.3,159.7 			"/>
			<polygon class="st5" points="320.6,142.6 285.4,142.6 471.5,343.9 471.5,305.9 			"/>
		</g>
	</g>
	<path class="st6" d="M11,128l113.5,0c0,40.8-62.4,90.3-83.5,90.3c-7.4,0-30,0-30,0V128z"/>
	<rect x="11" y="243.3" class="st7" width="23.3" height="170"/>
	<rect x="11" y="218.2" class="st8" width="30" height="26.1"/>
	<path class="st8" d="M499,128l-113.5,0c0,40.8,62.4,90.3,83.5,90.3c7.4,0,30,0,30,0V128z"/>
	<rect x="475.7" y="243.3" class="st9" width="23.3" height="170"/>
	<rect x="469.1" y="218.2" class="st7" width="30" height="26.1"/>
	<path class="st10" d="M411.8,363.7c-0.5,0-1.1,0-1.6,0.1c-0.4,0-0.7-0.1-1.1-0.1h-77.1c-6.5,0-11.7,5.2-11.7,11.7v0
		c0,6.5,5.2,11.7,11.7,11.7h55h17.5c0.7,0,1.3,0.6,1.3,1.3c0,0.7-0.6,1.3-1.3,1.3h-17.5v0h-55c-6.5,0-11.7,5.2-11.7,11.7v0
		c0,6.5,5.2,11.7,11.7,11.7h77.1c0.4,0,0.7,0,1.1-0.1c0.5,0,1.1,0.1,1.6,0.1c13.7,0,24.8-11.1,24.8-24.8
		C436.6,374.8,425.5,363.7,411.8,363.7z"/>
</g>
</svg>
