<?xml version="1.0" encoding="utf-8"?>
<!-- Generator: Adobe Illustrator 19.1.0, SVG Export Plug-In . SVG Version: 6.00 Build 0)  -->
<svg version="1.1" xmlns="http://www.w3.org/2000/svg" xmlns:xlink="http://www.w3.org/1999/xlink" x="0px" y="0px"
	 viewBox="0 0 510 510" style="enable-background:new 0 0 510 510;" xml:space="preserve">
<style type="text/css">
	.st0{fill:#FFD522;}
	.st1{fill:#FAEE5B;}
	.st2{fill:#FDF7BC;}
	.st3{fill:#C6B642;}
	.st4{fill:#32323F;}
	.st5{opacity:0.46;}
	.st6{fill:#070707;}
</style>
<g id="Layer_1">
	<circle class="st0" cx="255" cy="257.9" r="252.1"/>
	<g>
		<path class="st1" d="M255,0C115.8,0,2.9,112.9,2.9,252.1c0,32.7,6.2,63.9,17.5,92.5L347.5,17.5C318.9,6.2,287.7,0,255,0z"/>
		<path class="st2" d="M347.5,17.5L20.5,344.6c17.2,43.5,46.1,81,82.8,108.8l353-353C428.6,63.6,391,34.7,347.5,17.5z"/>
		<g>
			<path class="st1" d="M176.2,491.5c24.8,8.2,51.3,12.6,78.8,12.6c139.2,0,252.1-112.9,252.1-252.1c0-27.5-4.5-54-12.6-78.8
				L176.2,491.5z"/>
			<path class="st1" d="M456.3,100.4l-353,353c12.8,9.7,26.6,18.1,41.2,25.3l337.1-337.1C474.4,127,466,113.2,456.3,100.4z"/>
			<path class="st2" d="M481.6,141.5L144.5,478.6c10.2,5,20.8,9.3,31.7,12.9l318.3-318.3C490.9,162.3,486.6,151.7,481.6,141.5z"/>
		</g>
	</g>
	<g>
		<path class="st3" d="M255,465.3c-120.4,0-218.3-97.9-218.3-218.3S134.6,28.6,255,28.6s218.3,97.9,218.3,218.3
			S375.4,465.3,255,465.3z M255,38C139.8,38,46.1,131.7,46.1,246.9c0,115.2,93.7,208.9,208.9,208.9c115.2,0,208.9-93.7,208.9-208.9
			C463.9,131.7,370.2,38,255,38z"/>
	</g>
	<g>
		<path class="st4" d="M255,470.4c-120.4,0-218.3-97.9-218.3-218.3S134.6,33.7,255,33.7s218.3,97.9,218.3,218.3
			S375.4,470.4,255,470.4z M255,43.2c-115.2,0-208.9,93.7-208.9,208.9C46.1,367.3,139.8,461,255,461c115.2,0,208.9-93.7,208.9-208.9
			C463.9,136.9,370.2,43.2,255,43.2z"/>
	</g>
</g>
<g id="Layer_2">
	<g>
		<path class="st3" d="M251.2,186.9c-4.1,1-10.3,8-11.7,9.7c-6.5,7.9-8.2,16.8-10.1,26.6c-0.7,3.8,0.5,10.3-2.6,12.6
			c-3.4,2.4-10.5,0.4-14.6,0.2c-26.8-1.7-22.4,5.9-11,9.1c12.1,3.4,31.9,4,41.5,12.1c39.5,32.9-6.6,63.9-15.5,68.7
			c-8.2,4.5-18.5,6.3-28,7.2c-14.2,1.4-17.9,3.4-21.7,17.3c-0.9,3.2-1.6,6.5-2.5,9.6c-2.1,7.3-6.9,10.3-14.3,8.2
			c-28.4-8.1-51.5-23.8-68-48.3c-3.4-5-4.4-12.3-4.4-18.6c0-14.9,3.9-29.8-6.9-43.5c-3.4-4.3-3.8-12-3.4-18
			c1.7-26.6,7.9-51.7,25.5-72.9c9.5-11.4,22.6-14.8,36-17.6c7.8-1.6,12.3-5.4,16.7-12.4c19-30.4,44.6-53,80.5-61.3
			c6.3-1.5,13.5-2,19.6-0.5c57.2,14.9,105.1,53.2,117.1,113c6.9,34.3,2.8,69.9-4.7,104.1c-3.3,15.1-7.4,30.1-14.2,43.9
			c-6.8,13.8-16,19.8-31.4,20.3c-25.2,0.9-50.5-2.5-74.5-9.9c-3.7-1.1-7.9-2.9-8.8-6.7c-1.4-5.8,7.4-13.5,10.8-17.6
			c5.7-6.7,11.7-13.1,16.5-20.4c8.7-13.2,4-26.2-3.6-38.4c-3.7-5.9-7.9-11.6-12-17.3c-5.5-7.5-9.3-16.2-8.4-25.7
			c0.9-10.2,7.5-17.7,10.9-26.9c0.5-1.5,1-3,0.6-4.5C254.1,187,252.9,186.5,251.2,186.9z"/>
		<path class="st3" d="M320.6,85.3c5,0.6,10,2.8,14.8,4.4c31.6,10.7,60.9,33.3,77.3,62.6c13.2,23.5,20.6,49.3,19.2,76.4
			c-1.6,30.9-14,62.8-37.1,83.9c-2.8,2.5-5.6,4.9-8.7,7.1c-1.1,0.8-2.4,1.7-3.8,1.7c-3.8,0.1-5.2-5.1-4.1-8.7
			c2.8-8.6,5.5-17,7.6-25.9c2.3-9.8,4.1-19.7,5.3-29.7c2.3-19.9,2.1-40.1-1.7-59.8c-8.3-43.1-34.8-81.6-70.4-107.2
			C316,87.9,318,84.9,320.6,85.3z"/>
		<path class="st3" d="M269.6,363.6c-4.4,2.8-12,4.2-14.4,5.6c-21.6,12.1-31.4,26.7-17.2,46.5c4.6,6.4-4.9,12.1-9.2,5.6
			c-21.2-32-38.2-39.7-38.2-73.4C218.8,340.5,235,359.8,269.6,363.6z"/>
	</g>
	<g>
		<path class="st1" d="M251.2,192.7c-4.1,1-10.3,8-11.7,9.7c-6.5,7.9-8.2,16.8-10.1,26.6c-0.7,3.8,0.5,10.3-2.6,12.6
			c-3.4,2.4-10.5,0.4-14.6,0.2c-26.8-1.7-22.4,5.9-11,9.1c12.1,3.4,31.9,4,41.5,12.1c39.5,32.9-6.6,63.9-15.5,68.7
			c-8.2,4.5-18.5,6.3-28,7.2c-14.2,1.4-17.9,3.4-21.7,17.3c-0.9,3.2-1.6,6.5-2.5,9.6c-2.1,7.3-6.9,10.3-14.3,8.2
			c-28.4-8.1-51.5-23.8-68-48.3c-3.4-5-4.4-12.3-4.4-18.6c0-14.9,3.9-29.8-6.9-43.5c-3.4-4.3-3.8-12-3.4-18
			c1.7-26.6,7.9-51.7,25.5-72.9c9.5-11.4,22.6-14.8,36-17.6c7.8-1.6,12.3-5.4,16.7-12.4c19-30.4,44.6-53,80.5-61.3
			c6.3-1.5,13.5-2,19.6-0.5c57.2,14.9,105.1,53.2,117.1,113c6.9,34.3,2.8,69.9-4.7,104.1c-3.3,15.1-7.4,30.1-14.2,43.9
			c-6.8,13.8-16,19.8-31.4,20.3c-25.2,0.9-50.5-2.5-74.5-9.9c-3.7-1.1-7.9-2.9-8.8-6.7c-1.4-5.8,7.4-13.5,10.8-17.6
			c5.7-6.7,11.7-13.1,16.5-20.4c8.7-13.2,4-26.2-3.6-38.4c-3.7-5.9-7.9-11.6-12-17.3c-5.5-7.5-9.3-16.2-8.4-25.7
			c0.9-10.2,7.5-17.7,10.9-26.9c0.5-1.5,1-3,0.6-4.5C254.1,192.8,252.9,192.3,251.2,192.7z"/>
		<path class="st1" d="M320.6,91c5,0.6,10,2.8,14.8,4.4c31.6,10.7,60.9,33.3,77.3,62.6c13.2,23.5,20.6,49.3,19.2,76.4
			c-1.6,30.9-14,62.8-37.1,83.9c-2.8,2.5-5.6,4.9-8.7,7.1c-1.1,0.8-2.4,1.7-3.8,1.7c-3.8,0.1-5.2-5.1-4.1-8.7
			c2.8-8.6,5.5-17,7.6-25.9c2.3-9.8,4.1-19.7,5.3-29.7c2.3-19.9,2.1-40.1-1.7-59.8c-8.3-43.1-34.8-81.6-70.4-107.2
			C316,93.7,318,90.7,320.6,91z"/>
		<path class="st1" d="M269.6,369.4c-4.4,2.8-12,4.2-14.4,5.6c-21.6,12.1-31.4,26.7-17.2,46.5c4.6,6.4-4.9,12.1-9.2,5.6
			c-21.2-32-38.2-39.7-38.2-73.4C218.8,346.3,235,365.5,269.6,369.4z"/>
	</g>
	<g class="st5">
		<path class="st6" d="M251.2,192.2c-4.1,1-10.3,8-11.7,9.7c-6.5,7.9-8.2,16.8-10.1,26.6c-0.7,3.8,0.5,10.3-2.6,12.6
			c-3.4,2.4-10.5,0.4-14.6,0.2c-26.8-1.7-22.4,5.9-11,9.1c12.1,3.4,31.9,4,41.5,12.1c39.5,32.9-6.6,63.9-15.5,68.7
			c-8.2,4.5-18.5,6.3-28,7.2c-14.2,1.4-17.9,3.4-21.7,17.3c-0.9,3.2-1.6,6.5-2.5,9.6c-2.1,7.3-6.9,10.3-14.3,8.2
			c-28.4-8.1-51.5-23.8-68-48.3c-3.4-5-4.4-12.3-4.4-18.6c0-14.9,3.9-29.8-6.9-43.5c-3.4-4.3-3.8-12-3.4-18
			c1.7-26.6,7.9-51.7,25.5-72.9c9.5-11.4,22.6-14.8,36-17.6c7.8-1.6,12.3-5.4,16.7-12.4c19-30.4,44.6-53,80.5-61.3
			c6.3-1.5,13.5-2,19.6-0.5c57.2,14.9,105.1,53.2,117.1,113c6.9,34.3,2.8,69.9-4.7,104.1c-3.3,15.1-7.4,30.1-14.2,43.9
			c-6.8,13.8-16,19.8-31.4,20.3c-25.2,0.9-50.5-2.5-74.5-9.9c-3.7-1.1-7.9-2.9-8.8-6.7c-1.4-5.8,7.4-13.5,10.8-17.6
			c5.7-6.7,11.7-13.1,16.5-20.4c8.7-13.2,4-26.2-3.6-38.4c-3.7-5.9-7.9-11.6-12-17.3c-5.5-7.5-9.3-16.2-8.4-25.7
			c0.9-10.2,7.5-17.7,10.9-26.9c0.5-1.5,1-3,0.6-4.5C254.1,192.4,252.9,191.9,251.2,192.2z"/>
		<path class="st6" d="M320.6,90.6c5,0.6,10,2.8,14.8,4.4c31.6,10.7,60.9,33.3,77.3,62.6c13.2,23.5,20.6,49.3,19.2,76.4
			c-1.6,30.9-14,62.8-37.1,83.9c-2.8,2.5-5.6,4.9-8.7,7.1c-1.1,0.8-2.4,1.7-3.8,1.7c-3.8,0.1-5.2-5.1-4.1-8.7
			c2.8-8.6,5.5-17,7.6-25.9c2.3-9.8,4.1-19.7,5.3-29.7c2.3-19.9,2.1-40.1-1.7-59.8c-8.3-43.1-34.8-81.6-70.4-107.2
			C316,93.3,318,90.3,320.6,90.6z"/>
		<path class="st6" d="M269.6,369c-4.4,2.8-12,4.2-14.4,5.6c-21.6,12.1-31.4,26.7-17.2,46.5c4.6,6.4-4.9,12.1-9.2,5.6
			c-21.2-32-38.2-39.7-38.2-73.4C218.8,345.9,235,365.1,269.6,369z"/>
	</g>
</g>
</svg>
