<?xml version="1.0" encoding="utf-8"?>
<!-- Generator: Adobe Illustrator 19.1.0, SVG Export Plug-In . SVG Version: 6.00 Build 0)  -->
<svg version="1.1" id="Layer_1" xmlns="http://www.w3.org/2000/svg" xmlns:xlink="http://www.w3.org/1999/xlink" x="0px" y="0px"
	 viewBox="0 0 510 510" style="enable-background:new 0 0 510 510;" xml:space="preserve">
<style type="text/css">
	.st0{fill:#FFFFFF;}
	.st1{fill:#E5E5E5;}
	.st2{fill:#C67305;}
	.st3{fill:#D88205;}
	.st4{fill:#EFE6A0;}
	.st5{fill:#BF3A3A;}
	.st6{fill:#FFE133;}
	.st7{fill:#CC3E3E;}
	.st8{fill:#EDCC2B;}
	.st9{fill:#FFF8B6;}
</style>
<g>
	<g>
		<g>
			<path class="st0" d="M397,275.8h-12.4v139c-3.8-0.5-6.5,0.6-9.1,3.2l-8,8.3c-4.5,4.5-4.3,11.8,0.2,16.2l11.6,11.5
				c4.5,4.5,11.6,4.5,16.1,0l1.7-1.9V275.8z"/>
			<path class="st1" d="M397,275.8h12.4v139c3.8-0.5,7,0.6,9.7,3.2l8.2,8.3c4.5,4.5,4.5,11.8,0,16.2l-11.5,11.5
				c-4.5,4.5-12.1,4.5-16.6,0l-2.2-1.9V275.8z"/>
		</g>
		<path class="st2" d="M510.1,114.4c0-53.5-37.2-98.3-87.2-109.9c-7.2-1.7-14.9-2.7-22.6-2.9c-1,0-1.3,0-3.3,0v342.1l7.7-4.5l8.2,5
			c0-106.4,97.2-97.3,97.2-229.3h0C510.1,115,510.1,114.5,510.1,114.4z"/>
		<path class="st3" d="M393.8,1.5c-7.6,0.2-15.3,1.2-22.5,2.8c-49.9,11.5-87.2,56.5-87.2,110c0,0.1,0,0.6,0,0.6h0
			c0,132,97.1,122.9,97.1,229.3l8.1-4.9l7.6,4.5l0.1-0.1V1.6C395,1.6,394.8,1.5,393.8,1.5z"/>
	</g>
	<g>
		<path class="st4" d="M170,508.5v-76c-50,0-99-11.7-143-32.9L0,469.4C52.2,494.5,110,508.5,170,508.5z"/>
		<path class="st5" d="M154.4,179.8c0,16.3,6.6,31,15.6,41.6v-83.2C161,148.8,154.4,163.5,154.4,179.8z"/>
		<path class="st6" d="M206.5,121.5l-36.5-95v111.7C181,127.9,192.3,121.5,206.5,121.5z"/>
		<path class="st7" d="M245.1,220l-38.2-98.5c-14.2,0-25.9,6.4-36.9,16.7v83.2c11,10.3,22.7,16.7,36.9,16.7
			C221.8,238.1,235.6,231.2,245.1,220z"/>
		<g>
			<path class="st8" d="M158.3,316c0,36.7-26.6,66.5-59.5,66.5c-22.3,0-41.7-13.7-51.8-34l-20,51c44,21.1,93,32.9,143,32.9v-211
				c-9-10.6-15.6-25.3-15.6-41.6s6.6-31,15.6-41.6V26.5l-86.1,225c4.7-1.3,9.7-2,14.8-2C131.5,249.5,158.3,279.3,158.3,316z"/>
			<path class="st5" d="M98.9,382.5c32.8,0,59.5-29.8,59.5-66.5c0-36.7-26.6-66.5-59.5-66.5c-5,0-9.9,0.7-14.6,2l-37.3,97
				C57.2,368.8,76.6,382.5,98.9,382.5z"/>
		</g>
		<path class="st6" d="M215.9,429.3c-7.6-11.5-12.1-25.7-12.1-41.1c0-38.2,27.7-69.2,61.9-69.2c6.5,0,12.8,1.1,18.6,3.2l-4.4-11.4
			L245.1,220c-9.5,11.2-23.3,18.1-38.1,18.1c-14.2,0-25.9-6.4-36.9-16.7v211c11,0,21.9-0.5,32.4-1.6
			C206.8,430.4,211.5,429.9,215.9,429.3z"/>
		<path class="st9" d="M340.5,469.4l-19.4-50.9l-2.4-6.4l-4.8-12.6c-30.8,14.8-63.7,25-98.1,29.7c-4.3,0.6-9,1.1-13.4,1.6
			c-10.6,1-21.4,1.6-32.4,1.6v76C231,508.5,288.3,494.5,340.5,469.4z"/>
		<path class="st7" d="M216,429.3c17-2.4,33-6,50-10.9V319c-35,0-62,31-62,69.2C204,403.6,208.5,417.8,216,429.3z"/>
		<path class="st7" d="M314.2,399.5l-29.6-77.3c-5.9-2.1-11.6-3.2-18.6-3.2v99.3C283,413.3,298.6,407,314.2,399.5z"/>
	</g>
</g>
</svg>
