<?xml version="1.0" encoding="utf-8"?>
<!-- Generator: Adobe Illustrator 19.1.0, SVG Export Plug-In . SVG Version: 6.00 Build 0)  -->
<svg version="1.1" id="Layer_1" xmlns="http://www.w3.org/2000/svg" xmlns:xlink="http://www.w3.org/1999/xlink" x="0px" y="0px"
	 viewBox="0 0 510 510" style="enable-background:new 0 0 510 510;" xml:space="preserve">
<style type="text/css">
	.st0{fill:#2D2D2D;}
	.st1{fill:#282828;}
	.st2{fill:#3F3F3F;}
	.st3{fill:#5D5D5D;}
	.st4{fill:#6C8CFF;}
	.st5{fill:#FF5F5F;}
	.st6{fill:#FFFB66;}
	.st7{fill:#76FF8D;}
</style>
<g>
	<g>
		<path class="st0" d="M505.9,334.1l-67.7-186.2c-0.4-1.3-0.9-2.7-1.5-4l-0.6-1.5l-0.1,0c-0.1-0.1-0.1-0.3-0.2-0.4
			c-14.6-33.8-53.9-49.2-87.7-34.6c-3,1.3-5.9,2.6-8.6,4.6H255v158h17.3c0.2,37,30,66.3,66.7,66.3c14.8,0,28.4-4.8,39.4-12.9
			l27.3,54c12,27.7,44.1,40.4,71.8,28.4C505.1,393.9,517.9,361.7,505.9,334.1z"/>
		<path class="st1" d="M252.2,112H171c-2.7-2-5.6-3.3-8.6-4.6c-33.8-14.6-73.1,0.9-87.7,34.7c-0.1,0.1-0.1,0.2-0.2,0.4l-0.1,0
			l-0.6,1.5c-0.5,1.3-1,2.7-1.5,4L4.9,334.1c-12,27.7,0.8,59.8,28.4,71.8c27.7,12,59.8-0.8,71.8-28.4l27.3-54
			c11,8.1,24.7,12.9,39.4,12.9c36.7,0,66.4-29.3,66.7-66.3h13.8h2.8V112H252.2z"/>
	</g>
	<circle class="st2" cx="171.8" cy="269.6" r="43.3"/>
	<circle class="st2" cx="339" cy="269.6" r="43.3"/>
	<circle class="st3" cx="171.8" cy="269.6" r="36.2"/>
	<circle class="st3" cx="339.5" cy="269.6" r="36.2"/>
	<polygon class="st3" points="162,173 140,173 140,150 118,150 118,173 95,173 95,195 118,195 118,217 140,217 140,195 162,195 	"/>
	<g>
		<g>
			<circle class="st4" cx="344.2" cy="182.6" r="13.9"/>
			<circle class="st5" cx="405.3" cy="182.6" r="13.9"/>
		</g>
		<g>
			<circle class="st6" cx="374.8" cy="152" r="13.9"/>
			<circle class="st7" cx="374.8" cy="213.1" r="13.9"/>
		</g>
	</g>
</g>
</svg>
