<?xml version="1.0" encoding="utf-8"?>
<!-- Generator: Adobe Illustrator 19.1.0, SVG Export Plug-In . SVG Version: 6.00 Build 0)  -->
<svg version="1.1" xmlns="http://www.w3.org/2000/svg" xmlns:xlink="http://www.w3.org/1999/xlink" x="0px" y="0px"
	 viewBox="0 0 510 510" style="enable-background:new 0 0 510 510;" xml:space="preserve">
<style type="text/css">
	.st0{fill:#2D2D2D;}
	.st1{fill:#282828;}
	.st2{fill:#3F3F3F;}
	.st3{fill:#5D5D5D;}
	.st4{fill:#395AFF;}
	.st5{fill:#FF3939;}
	.st6{fill:#FFFF39;}
	.st7{fill:#36FF5C;}
</style>
<g id="Layer_3">
</g>
<g id="Layer_2">
	<g id="Layer_1">
		<g>
			<g>
				<path class="st0" d="M505.5,333l-67.7-186.2c-0.4-1.3-0.9-2.7-1.5-4l-0.6-1.5l-0.1,0c-0.1-0.1-0.1-0.3-0.2-0.4
					c-14.6-33.8-53.9-49.2-87.7-34.6c-3,1.3-5.9,3.6-8.6,4.6H255v158h16.9c0.2,36,30,66.3,66.7,66.3c14.8,0,28.4-4.8,39.4-12.9
					l27.3,54c12,27.7,44.1,40.4,71.8,28.4C504.7,392.8,517.5,360.7,505.5,333z"/>
				<path class="st1" d="M251.9,111h-81.2c-2.7-1-5.6-3.3-8.6-4.6c-33.8-14.6-73.1,0.8-87.7,34.6c-0.1,0.1-0.1,0.2-0.2,0.3l-0.1,0
					l-0.6,1.5c-0.5,1.3-1,2.7-1.5,4L4.5,333c-12,27.7,0.8,59.8,28.4,71.8c27.7,12,59.8-0.8,71.8-28.4l27.3-54
					c11,8.1,24.7,12.9,39.4,12.9c36.7,0,66.4-30.3,66.7-66.3h13.8h3.1V111H251.9z"/>
			</g>
			<circle class="st2" cx="171.4" cy="268.6" r="43.3"/>
			<circle class="st2" cx="338.6" cy="268.6" r="43.3"/>
			<circle class="st3" cx="171.4" cy="268.6" r="36.2"/>
			<circle class="st3" cx="339.1" cy="268.6" r="36.2"/>
			<polygon class="st3" points="162,172 140,172 140,149 118,149 118,172 96,172 96,194 118,194 118,216 140,216 140,194 162,194 
							"/>
			<g>
				<g>
					<circle class="st4" cx="343.8" cy="181.5" r="13.9"/>
					<circle class="st5" cx="404.9" cy="181.5" r="13.9"/>
				</g>
				<g>
					<circle class="st6" cx="374.4" cy="151" r="13.9"/>
					<circle class="st7" cx="374.4" cy="212" r="13.9"/>
				</g>
			</g>
		</g>
	</g>
</g>
</svg>
