<?xml version="1.0" encoding="utf-8"?>
<!-- Generator: Adobe Illustrator 19.1.0, SVG Export Plug-In . SVG Version: 6.00 Build 0)  -->
<svg version="1.1" id="Layer_1" xmlns="http://www.w3.org/2000/svg" xmlns:xlink="http://www.w3.org/1999/xlink" x="0px" y="0px"
	 viewBox="0 0 510 510" style="enable-background:new 0 0 510 510;" xml:space="preserve">
<style type="text/css">
	.st0{fill:#5CC5FF;}
	.st1{fill:#1E88E5;}
	.st2{fill:#42A5F5;}
	.st3{fill:#F2F2F2;}
</style>
<g>
	<rect x="1.2" y="-0.3" class="st0" width="509" height="510"/>
	<polygon class="st1" points="451.4,150.3 331.7,56.9 257.3,131.5 361.6,213.7 357.5,379.7 227.6,509 243.4,509 415.1,337.8 	"/>
	<path class="st2" d="M257.8,131.4L257.8,131.4l-29.1-22.6L71.2,156L0,227.2v162.6v80.9c0,2.3,0,4.5,0,6.6V509h39.6h36.6h151.4
		l129.9-129.3l4.1-166.4L257.8,131.4z"/>
	<g>
		<path class="st3" d="M251.2,179.2c-5,1.2-12.5,9.7-14.2,11.7c-7.8,9.6-9.9,20.4-12.2,32.2c-0.9,4.6,0.6,12.5-3.2,15.2
			c-4.1,2.9-12.7,0.5-17.7,0.2c-32.4-2-27.1,7.2-13.3,11.1c14.7,4.1,38.6,4.9,50.3,14.6c47.7,39.9-8,77.4-18.7,83.3
			c-10,5.4-22.3,7.6-33.9,8.7c-17.2,1.7-21.7,4.2-26.3,20.9c-1.1,3.9-1.9,7.8-3,11.7c-2.5,8.9-8.3,12.5-17.3,10
			c-34.3-9.8-62.3-28.9-82.3-58.5c-4.1-6-5.3-14.9-5.3-22.5c0-18,4.7-36.2-8.4-52.7c-4.1-5.2-4.6-14.5-4.1-21.8
			c2.1-32.2,9.6-62.6,30.9-88.3c11.5-13.8,27.3-18,43.5-21.3c9.5-2,14.9-6.6,20.2-15c23-36.9,53.9-64.2,97.4-74.2
			c7.6-1.8,16.3-2.5,23.7-0.6c69.2,18,127.1,64.5,141.7,136.9c8.4,41.6,3.4,84.7-5.7,126.1c-4,18.2-8.9,36.4-17.1,53.2
			c-8.2,16.7-19.4,24-37.9,24.6c-30.4,1-61-3-90.1-12c-4.5-1.4-9.5-3.5-10.7-8.1c-1.7-7.1,8.9-16.4,13.1-21.3
			c6.9-8.1,14.1-15.8,20-24.7c10.6-16,4.8-31.8-4.3-46.5c-4.5-7.2-9.5-14-14.5-20.9c-6.6-9.1-11.2-19.7-10.2-31.1
			c1.1-12.3,9.1-21.4,13.2-32.6c0.6-1.8,1.2-3.7,0.7-5.5C254.7,179.4,253.1,178.8,251.2,179.2z"/>
		<path class="st3" d="M335.1,56.1c6,0.8,12.2,3.3,17.9,5.3c38.2,13,73.7,40.3,93.5,75.9c15.9,28.5,24.9,59.7,23.2,92.6
			c-1.9,37.5-16.9,76.1-44.8,101.7c-3.3,3-6.8,5.9-10.5,8.5c-1.4,1-2.9,2-4.6,2.1c-4.5,0.1-6.3-6.2-5-10.5
			c3.3-10.4,6.6-20.6,9.1-31.4c2.8-11.9,5-23.9,6.4-36c2.8-24.1,2.5-48.6-2.1-72.4c-10.1-52.2-42-98.9-85.2-129.9
			C329.5,59.3,331.9,55.7,335.1,56.1z"/>
		<path class="st3" d="M273.4,393.4c-5.3,3.4-14.6,5.1-17.4,6.7c-26.1,14.6-38,32.3-20.8,56.4c5.5,7.7-5.9,14.7-11.2,6.8
			c-25.6-38.8-46.2-48.1-46.2-88.9C211.9,365.4,231.5,388.7,273.4,393.4z"/>
	</g>
</g>
</svg>
