<?xml version="1.0" encoding="utf-8"?>
<!-- Generator: Adobe Illustrator 19.1.0, SVG Export Plug-In . SVG Version: 6.00 Build 0)  -->
<svg version="1.1" xmlns="http://www.w3.org/2000/svg" xmlns:xlink="http://www.w3.org/1999/xlink" x="0px" y="0px"
	 viewBox="0 0 510 510" style="enable-background:new 0 0 510 510;" xml:space="preserve">
<style type="text/css">
	.st0{fill:#FFD522;}
	.st1{fill:#FAEE5B;}
	.st2{fill:#FDF7BC;}
	.st3{fill:#C6B642;}
	.st4{fill:#32323F;}
</style>
<g id="Layer_1">
	<circle class="st0" cx="255" cy="257.9" r="252.1"/>
	<g>
		<path class="st1" d="M255,0C115.8,0,2.9,112.9,2.9,252.1c0,32.7,6.2,63.9,17.5,92.5L347.5,17.5C318.9,6.2,287.7,0,255,0z"/>
		<path class="st2" d="M347.5,17.5L20.5,344.6c17.2,43.5,46.1,81,82.8,108.8l353-353C428.6,63.6,391,34.7,347.5,17.5z"/>
		<g>
			<path class="st1" d="M176.2,491.5c24.8,8.2,51.3,12.6,78.8,12.6c139.2,0,252.1-112.9,252.1-252.1c0-27.5-4.5-54-12.6-78.8
				L176.2,491.5z"/>
			<path class="st1" d="M456.3,100.4l-353,353c12.8,9.7,26.6,18.1,41.2,25.3l337.1-337.1C474.4,127,466,113.2,456.3,100.4z"/>
			<path class="st2" d="M481.6,141.5L144.5,478.6c10.2,5,20.8,9.3,31.7,12.9l318.3-318.3C490.9,162.3,486.6,151.7,481.6,141.5z"/>
		</g>
	</g>
	<g>
		<path class="st3" d="M255,465.3c-120.4,0-218.3-97.9-218.3-218.3S134.6,28.6,255,28.6s218.3,97.9,218.3,218.3
			S375.4,465.3,255,465.3z M255,38C139.8,38,46.1,131.7,46.1,246.9c0,115.2,93.7,208.9,208.9,208.9c115.2,0,208.9-93.7,208.9-208.9
			C463.9,131.7,370.2,38,255,38z"/>
	</g>
	<g>
		<path class="st4" d="M255,470.4c-120.4,0-218.3-97.9-218.3-218.3S134.6,33.7,255,33.7s218.3,97.9,218.3,218.3
			S375.4,470.4,255,470.4z M255,43.2c-115.2,0-208.9,93.7-208.9,208.9C46.1,367.3,139.8,461,255,461c115.2,0,208.9-93.7,208.9-208.9
			C463.9,136.9,370.2,43.2,255,43.2z"/>
	</g>
</g>
<g id="Layer_2">
	<g>
		<g>
			<path class="st3" d="M251.6,192.9c-3.7,0.9-9.4,7.2-10.6,8.8c-5.9,7.2-7.5,15.3-9.2,24.1c-0.7,3.5,0.5,9.3-2.4,11.4
				c-3,2.2-9.5,0.4-13.3,0.1c-24.4-1.5-20.3,5.4-10,8.3c11,3.1,29,3.6,37.7,11c35.9,29.9-6,58.1-14,62.4c-7.5,4.1-16.8,5.7-25.5,6.5
				c-12.9,1.3-16.3,3.1-19.7,15.7c-0.8,2.9-1.4,5.9-2.3,8.8c-1.9,6.7-6.3,9.4-13,7.5c-25.8-7.3-46.8-21.7-61.8-43.9
				c-3-4.5-4-11.2-4-16.9c0-13.5,3.5-27.1-6.3-39.5c-3.1-3.9-3.5-10.9-3.1-16.4c1.5-24.1,7.2-46.9,23.2-66.2
				c8.6-10.4,20.5-13.5,32.7-16c7.1-1.5,11.2-4.9,15.1-11.3c17.2-27.6,40.5-48.1,73.1-55.7c5.7-1.3,12.3-1.9,17.8-0.4
				c52,13.5,95.5,48.4,106.4,102.7c6.3,31.2,2.6,63.5-4.3,94.6c-3,13.7-6.7,27.3-12.9,39.9c-6.2,12.5-14.6,18-28.5,18.5
				c-22.9,0.8-45.9-2.3-67.7-9c-3.4-1-7.2-2.7-8-6.1c-1.3-5.3,6.7-12.3,9.8-16c5.2-6.1,10.6-11.9,15-18.5c7.9-12,3.6-23.8-3.3-34.9
				c-3.4-5.4-7.2-10.5-10.9-15.7c-5-6.8-8.4-14.7-7.7-23.3c0.8-9.2,6.8-16,9.9-24.5c0.5-1.3,0.9-2.8,0.5-4.1
				C254.2,193,253,192.5,251.6,192.9z"/>
			<path class="st3" d="M314.6,100.5c4.5,0.6,9.1,2.5,13.4,4c28.7,9.7,55.3,30.2,70.3,56.9c12,21.4,18.7,44.8,17.5,69.4
				c-1.4,28.1-12.7,57.1-33.7,76.2c-2.5,2.3-5.1,4.4-7.9,6.4c-1,0.8-2.2,1.5-3.5,1.5c-3.4,0.1-4.8-4.6-3.7-7.9
				c2.5-7.8,5-15.5,6.9-23.5c2.1-8.9,3.7-17.9,4.8-27c2.1-18,1.9-36.4-1.5-54.3c-7.6-39.1-31.6-74.2-64-97.4
				C310.5,103,312.2,100.2,314.6,100.5z"/>
			<path class="st3" d="M268.3,353.4c-4,2.5-10.9,3.8-13.1,5c-19.6,11-28.5,24.3-15.6,42.3c4.2,5.8-4.5,11-8.4,5.1
				c-19.3-29.1-34.7-36-34.7-66.7C222.1,332.5,236.8,349.9,268.3,353.4z"/>
		</g>
		<g>
			<path class="st4" d="M251.6,198c-3.7,0.9-9.4,7.2-10.6,8.8c-5.9,7.2-7.5,15.3-9.2,24.1c-0.7,3.5,0.5,9.3-2.4,11.4
				c-3,2.2-9.5,0.4-13.3,0.1c-24.4-1.5-20.3,5.4-10,8.3c11,3.1,29,3.6,37.7,11c35.9,29.9-6,58.1-14,62.4c-7.5,4.1-16.8,5.7-25.5,6.5
				c-12.9,1.3-16.3,3.1-19.7,15.7c-0.8,2.9-1.4,5.9-2.3,8.8c-1.9,6.7-6.3,9.4-13,7.5c-25.8-7.3-46.8-21.7-61.8-43.9
				c-3-4.5-4-11.2-4-16.9c0-13.5,3.5-27.1-6.3-39.5c-3.1-3.9-3.5-10.9-3.1-16.4c1.5-24.1,7.2-46.9,23.2-66.2
				c8.6-10.4,20.5-13.5,32.7-16c7.1-1.5,11.2-4.9,15.1-11.3c17.2-27.6,40.5-48.1,73.1-55.7c5.7-1.3,12.3-1.9,17.8-0.4
				c52,13.5,95.5,48.4,106.4,102.7c6.3,31.2,2.6,63.5-4.3,94.6c-3,13.7-6.7,27.3-12.9,39.9c-6.2,12.5-14.6,18-28.5,18.5
				c-22.9,0.8-45.9-2.3-67.7-9c-3.4-1-7.2-2.7-8-6.1c-1.3-5.3,6.7-12.3,9.8-16c5.2-6.1,10.6-11.9,15-18.5c7.9-12,3.6-23.8-3.3-34.9
				c-3.4-5.4-7.2-10.5-10.9-15.7c-5-6.8-8.4-14.7-7.7-23.3c0.8-9.2,6.8-16,9.9-24.5c0.5-1.3,0.9-2.8,0.5-4.1
				C254.2,198.1,253,197.7,251.6,198z"/>
			<path class="st4" d="M314.6,105.7c4.5,0.6,9.1,2.5,13.4,4c28.7,9.7,55.3,30.2,70.3,56.9c12,21.4,18.7,44.8,17.5,69.4
				c-1.4,28.1-12.7,57.1-33.7,76.2c-2.5,2.3-5.1,4.4-7.9,6.4c-1,0.8-2.2,1.5-3.5,1.5c-3.4,0.1-4.8-4.6-3.7-7.9
				c2.5-7.8,5-15.5,6.9-23.5c2.1-8.9,3.7-17.9,4.8-27c2.1-18,1.9-36.4-1.5-54.3c-7.6-39.1-31.6-74.2-64-97.4
				C310.5,108.1,312.2,105.4,314.6,105.7z"/>
			<path class="st4" d="M268.3,358.6c-4,2.5-10.9,3.8-13.1,5c-19.6,11-28.5,24.3-15.6,42.3c4.2,5.8-4.5,11-8.4,5.1
				c-19.3-29.1-34.7-36-34.7-66.7C222.1,337.6,236.8,355,268.3,358.6z"/>
		</g>
	</g>
</g>
</svg>
