<?xml version="1.0" encoding="utf-8"?>
<!-- Generator: Adobe Illustrator 19.1.0, SVG Export Plug-In . SVG Version: 6.00 Build 0)  -->
<svg version="1.1" id="Layer_1" xmlns="http://www.w3.org/2000/svg" xmlns:xlink="http://www.w3.org/1999/xlink" x="0px" y="0px"
	 viewBox="0 0 510 510" style="enable-background:new 0 0 510 510;" xml:space="preserve">
<style type="text/css">
	.st0{fill:#AFCEAF;}
	.st1{fill:#81C784;}
	.st2{fill:#6AAD6A;}
	.st3{fill:#EAEAEA;}
	.st4{fill:#FFFFFF;}
	.st5{fill:#C8E6C9;}
	.st6{fill:#CECECE;}
	.st7{fill:#F4F4F4;}
	.st8{fill:#DBDBDB;}
	.st9{fill:#FCFCFC;}
	.st10{fill:#E8E8E8;}
	.st11{fill:#EF993A;}
	.st12{fill:#D3661C;}
</style>
<g>
	<path class="st0" d="M358.2,255c0,57-46.2,103.2-103.2,103.2v8h196.9c4.7-23.3,23-41.7,46.4-46.4V190.2
		c-23.3-4.7-41.7-23-46.4-46.4H255v8C312,151.8,358.2,198,358.2,255z"/>
	<path class="st1" d="M259.3,262.1c-1.3-2.1-2.8-4.2-4.3-6.3V266c2.6,4.9,2,9.4,0,13.4v9.3c2.1-2.5,4.3-4.9,6.1-7.6
		C265.4,274.6,263,268.1,259.3,262.1z"/>
	<g>
		<path class="st2" d="M255,132.2v11.7h196.9c4.7,23.3,23,41.7,46.4,46.4v129.5c-23.3,4.7-41.7,23-46.4,46.4H255v11.7h255V132.2H255
			z"/>
		<path class="st2" d="M358.2,255c0-57-46.2-103.2-103.2-103.2v16.7c0.2,0,0.4,0.1,0.6,0.1c28.4,7.4,52.1,26.4,58.1,56.1
			c3.4,17,1.4,34.7-2.3,51.6c-1.6,7.5-3.6,14.9-7,21.8c-3.4,6.8-8,9.8-15.6,10.1c-11.4,0.4-22.8-1-33.8-4v6.2c2.2,0.6,4.6,1,7.3,1.3
			c-2.2,1.4-6,2.1-7.1,2.8c0,0-0.1,0-0.1,0.1v43.6C312,358.2,358.2,312,358.2,255z M324.4,286.4c-1.4,1.2-2.8,2.4-4.3,3.5
			c-0.6,0.4-1.2,0.8-1.9,0.8c-1.9,0.1-2.6-2.5-2-4.3c1.4-4.3,2.7-8.4,3.8-12.9c1.1-4.9,2-9.8,2.6-14.7c1.1-9.9,1-19.9-0.8-29.6
			c-4.1-21.4-17.2-40.5-34.9-53.2c-1.5-1.1-0.5-2.6,0.8-2.4c2.5,0.3,5,1.4,7.3,2.2c15.7,5.3,30.2,16.5,38.4,31.1
			c6.5,11.7,10.2,24.4,9.5,37.9C342,260.1,335.9,276,324.4,286.4z"/>
	</g>
	<g>
		<path class="st3" d="M255.6,168.7c-0.2-0.1-0.4-0.1-0.6-0.1v87.3c1.5,2.1,3,4.1,4.3,6.3c3.8,6,6.1,12.5,1.8,19
			c-1.8,2.7-3.9,5.2-6.1,7.6v15.4c11,3,22.4,4.4,33.8,4c7.6-0.3,12.2-3.2,15.6-10.1c3.4-6.9,5.4-14.3,7-21.8
			c3.7-16.9,5.8-34.6,2.3-51.6C307.8,195.1,284,176.1,255.6,168.7z"/>
		<path class="st3" d="M255,266v13.4C257,275.5,257.6,270.9,255,266z"/>
		<path class="st3" d="M333.2,206.9c-8.1-14.6-22.7-25.7-38.4-31.1c-2.3-0.8-4.9-1.9-7.3-2.2c-1.3-0.2-2.3,1.3-0.8,2.4
			c17.7,12.7,30.8,31.8,34.9,53.2c1.9,9.8,2,19.8,0.8,29.6c-0.6,5-1.5,9.9-2.6,14.7c-1,4.4-2.4,8.6-3.8,12.9c-0.6,1.8,0.2,4.4,2,4.3
			c0.7,0,1.3-0.4,1.9-0.8c1.5-1.1,2.9-2.3,4.3-3.5c11.5-10.5,17.6-26.3,18.4-41.6C343.5,231.3,339.8,218.6,333.2,206.9z"/>
	</g>
	<path class="st4" d="M255.1,314.5c1.2-0.7,5-1.4,7.1-2.8c-2.6-0.3-5-0.8-7.3-1.3v4.2C255,314.5,255.1,314.5,255.1,314.5z"/>
	<path class="st5" d="M11.7,190.2v129.5c23.3,4.7,41.7,23,46.4,46.4H255v-8h0c-57,0-103.2-46.2-103.2-103.2S198,151.8,255,151.8h0
		v-8H58.1C53.4,167.2,35,185.6,11.7,190.2z"/>
	<g>
		<path class="st1" d="M0,132.2v245.6h255v-11.7H58.1c-4.7-23.3-23-41.7-46.4-46.4V190.2c23.3-4.7,41.7-23,46.4-46.4H255v-11.7H0z"
			/>
		<path class="st1" d="M249.1,240.8c0.5-5,3.7-8.8,5.4-13.4c0.3-0.7,0.5-1.5,0.3-2.3c-0.3-1-0.9-1.3-1.7-1.1c-2,0.5-5.1,4-5.8,4.8
			c-3.2,3.9-4.1,8.4-5,13.2c-0.4,1.9,0.3,5.1-1.3,6.2c-1.7,1.2-5.2,0.2-7.3,0.1c-13.3-0.8-11.1,3-5.5,4.5c6,1.7,15.8,2,20.6,6
			c2.9,2.4,4.8,4.8,6.1,7.1v-10.2c-0.6-0.8-1.1-1.5-1.7-2.3C250.6,249.8,248.7,245.5,249.1,240.8z"/>
		<path class="st1" d="M151.8,255c0,57,46.2,103.2,103.2,103.2h0v-43.6c-10.6,6-15.4,13.2-8.4,23c2.3,3.2-2.4,6-4.6,2.8
			c-10.5-15.9-18.9-19.7-18.9-36.4c11.8-3.1,19.4,3.3,31.9,6.5v-6.2c-1-0.3-2.1-0.6-3.1-0.9c-1.8-0.6-3.9-1.5-4.4-3.3
			c-0.7-2.9,3.7-6.7,5.4-8.7c0.7-0.8,1.4-1.7,2.1-2.5v-9.3c-3.5,7.1-11.4,12.2-13.7,13.5c-4.1,2.2-9.2,3.1-13.9,3.6
			c-7.1,0.7-8.9,1.7-10.8,8.6c-0.4,1.6-0.8,3.2-1.2,4.8c-1,3.6-3.4,5.1-7.1,4.1c-14.1-4-25.6-11.8-33.7-24c-1.7-2.5-2.2-6.1-2.2-9.2
			c0-7.4,1.9-14.8-3.4-21.6c-1.7-2.1-1.9-6-1.7-8.9c0.8-13.2,3.9-25.6,12.7-36.1c4.7-5.7,11.2-7.4,17.9-8.7c3.9-0.8,6.1-2.7,8.3-6.2
			c9.4-15.1,22.1-26.3,39.9-30.4c2.9-0.7,6.2-1,9.1-0.4v-16.7h0C198,151.8,151.8,198,151.8,255z"/>
	</g>
	<path class="st4" d="M245.9,168.9c-17.8,4.1-30.5,15.3-39.9,30.4c-2.2,3.5-4.4,5.3-8.3,6.2c-6.6,1.4-13.2,3.1-17.9,8.7
		c-8.7,10.5-11.8,23-12.7,36.1c-0.2,3,0,6.8,1.7,8.9c5.3,6.8,3.4,14.2,3.4,21.6c0,3.1,0.5,6.8,2.2,9.2c8.2,12.1,19.7,20,33.7,24
		c3.7,1,6-0.4,7.1-4.1c0.5-1.6,0.8-3.2,1.2-4.8c1.9-6.9,3.7-7.9,10.8-8.6c4.7-0.5,9.8-1.3,13.9-3.6c2.4-1.3,10.2-6.4,13.7-13.5V266
		c-1.2-2.3-3.2-4.7-6.1-7.1c-4.8-4-14.6-4.3-20.6-6c-5.6-1.6-7.8-5.4,5.5-4.5c2,0.1,5.6,1.1,7.3-0.1c1.6-1.1,0.9-4.3,1.3-6.2
		c0.9-4.8,1.8-9.2,5-13.2c0.7-0.8,3.8-4.3,5.8-4.8c0.8-0.2,1.4,0.1,1.7,1.1c0.2,0.7,0,1.5-0.3,2.3c-1.7,4.6-4.9,8.3-5.4,13.4
		c-0.4,4.7,1.5,9,4.2,12.7c0.6,0.8,1.1,1.5,1.7,2.3v-87.3C252.1,167.9,248.8,168.2,245.9,168.9z"/>
	<path class="st4" d="M252.9,291.3c-1.7,2-6.1,5.8-5.4,8.7c0.5,1.9,2.5,2.7,4.4,3.3c1,0.3,2.1,0.6,3.1,0.9v-15.4
		C254.3,289.6,253.6,290.4,252.9,291.3z"/>
	<path class="st4" d="M223.1,304c0,16.7,8.4,20.5,18.9,36.4c2.1,3.2,6.9,0.4,4.6-2.8c-7-9.8-2.2-17,8.4-23v-4.2
		C242.5,307.2,234.9,300.8,223.1,304z"/>
</g>
<g>
	<g>
		<rect x="277.7" y="383.3" class="st3" width="108.1" height="11.3"/>
		<rect x="385.8" y="383.3" class="st6" width="108.1" height="11.3"/>
	</g>
	<g>
		<rect x="292.5" y="372" class="st7" width="108.1" height="11.3"/>
		<rect x="400.6" y="372" class="st8" width="108.1" height="11.3"/>
	</g>
	<g>
		<rect x="271.2" y="360.7" class="st9" width="108.1" height="11.3"/>
		<rect x="379.3" y="360.7" class="st10" width="108.1" height="11.3"/>
	</g>
	<g>
		<rect x="304.8" y="349.3" class="st11" width="81.1" height="11.3"/>
		<rect x="385.9" y="349.3" class="st12" width="81.1" height="11.3"/>
	</g>
</g>
</svg>
