<?xml version="1.0" encoding="utf-8"?>
<!-- Generator: Adobe Illustrator 19.1.0, SVG Export Plug-In . SVG Version: 6.00 Build 0)  -->
<svg version="1.1" id="Layer_1" xmlns="http://www.w3.org/2000/svg" xmlns:xlink="http://www.w3.org/1999/xlink" x="0px" y="0px"
	 viewBox="0 0 510 510" style="enable-background:new 0 0 510 510;" xml:space="preserve">
<style type="text/css">
	.st0{fill:none;}
	.st1{fill:#4949AD;}
	.st2{fill:#5757B5;}
	.st3{fill:#6767C1;}
	.st4{fill:#DDB614;}
	.st5{fill:#CCA60A;}
	.st6{fill:#FFFA39;}
	.st7{fill:#EFE529;}
	.st8{fill:#FFD41D;}
	.st9{fill:#E5BD13;}
	.st10{fill:#FF4343;}
	.st11{fill:#E23B3B;}
	.st12{fill:#FFFFFF;}
	.st13{fill:#E0E0E0;}
</style>
<g>
	<path class="st0" d="M205.4,340.5c-3.2-6.7-6.3-13.4-9.2-20.2c-2.1-4.9-4.2-9.8-6.2-14.8v33.1C195,338.6,200.4,339.3,205.4,340.5z"
		/>
	<path class="st0" d="M148.9,198.4c-0.2-0.6,0.1-1.1-0.9-1.7c0,38.7,0,77.5,0,116.2c0,14.5,0,28.9,0,43.4c0,0,0.2,0,0.2-0.1
		c3-3,5.7-5.1,9.7-7.9c9.8-6.3,21.1-9.6,32.1-9.7v-33.1c-13-33.1-24.9-67-38.3-100.1C150.8,203.1,149.8,200.8,148.9,198.4z"/>
	<path class="st0" d="M89.2,107.4c-0.5-0.4-0.8-0.6-1.1-0.8c0.6,0.5,1.3,1.2,1.8,1.4C89.7,107.8,89.5,107.6,89.2,107.4z"/>
	<path class="st0" d="M90,108C90,108,90,108.1,90,108c0.1,0.1,0.2,0.1,0.3,0.1C90.2,108.1,90.1,108.1,90,108z"/>
	<path class="st1" d="M126.6,42.3c-0.5,0-1,0.1-1.4,0.1c2.1,0.1,4.3,0.2,6.4,0.3C130,42.4,128.3,42.2,126.6,42.3z"/>
	<g>
		<path class="st1" d="M148,196.4c-0.2-0.3-0.2-0.7-0.3-0.9c-1.8-4.2-3.6-8.3-5.5-12.4c-3.9-8.4-7.9-16.9-12.4-24.9
			c-2.4-4.4-5-9.2-7.6-13.2H105c0,13,0,24,0,37h22v13h-22c0,12,0,25,0,37h22v14h-22c0,12,0,23,0,36h22v13h-22c0,13,0,25,0,36h22v15
			h-22c0,11,0,24,0,36h22v14h-22c0,15,0,28.9,0,43.6c0,11.3,10,22.2,21.7,21.7c11.3-0.5,20.9-8.9,21.6-20.3
			c-20.3-20.4-23-51.8-7.9-75c1.9-3.1,4.6-6.6,7.6-9.7c0-14.5,0-28.9,0-43.4c0-38.7,0-77.5,0-116.2C148,196.6,148.1,196.5,148,196.4
			z"/>
		<path class="st1" d="M112.1,130.9c-0.5-0.7-1-1.4-1.6-2c-1.8-2.2-3.6-4.4-5.6-6.5c0,3.1,0,6.6,0,9.6h7.9
			C112.6,132,112.4,131.2,112.1,130.9z"/>
	</g>
	<path class="st0" d="M49,182h56c0-13,0-24,0-37H49C49,158,49,169,49,182z"/>
	<path class="st0" d="M49,232h56c0-12,0-25,0-37H49C49,207,49,220,49,232z"/>
	<path class="st0" d="M49,382h56c0-12,0-25,0-36H49C49,357,49,370,49,382z"/>
	<path class="st0" d="M49,312.9c0,6.3,0,12.1,0,18.1h56c0-11,0-23,0-36H49C49,301,49,307.1,49,312.9z"/>
	<path class="st0" d="M49,282h56c0-13,0-24,0-36H49C49,258,49,269,49,282z"/>
	<g>
		<path class="st2" d="M105,182H49c0,5,0,9,0,13h56h22v-13H105z"/>
		<path class="st2" d="M49,382c0,4,0,8,0,14h56h22v-14h-22H49z"/>
		<path class="st2" d="M49,331c0,6,0,10,0,15h56h22v-15h-22H49z"/>
		<path class="st2" d="M49,282c0,4,0,9,0,13h56h22v-13h-22H49z"/>
		<path class="st2" d="M49,232c0,4,0,10,0,14h56h22v-14h-22H49z"/>
		<path class="st2" d="M122.2,145c-2-3-4.1-6.1-6.3-9.2c-1-1.4-2-2.8-3-3.8H105H49c0,4,0,9,0,13h56H122.2z"/>
	</g>
	<path class="st3" d="M45.6,87.8c-2.1-0.4-4.4-0.8-6.5-1.1c-1.2-0.1-2.4-0.1-3.6-0.2C30.8,86,26,86,21.2,86H7.1
		C6.5,86,6,85.6,5,85.4c0,35.1,0,70.2,0,105.3c0,67.4,0,134.8,0,202.2c0,15.6,0,31.2,0,46.7c0,11.3,10.3,22.2,22,21.7
		c11.7-0.5,22-9.5,22-21.7c0-14.7,0-28.9,0-43.3c0-5.8,0-9.9,0-14.4c0-12.1,0-24.6,0-36.1c0-4.3,0-8.7,0-14.4s0-12,0-18.3
		c0-5.8,0-12,0-17.8c0-4.3,0-8.7,0-13c0-13,0-24.6,0-36.1c0-4.3,0-10.1,0-14.4c0-11.6,0-24.6,0-36.1c0-4.3,0-8.7,0-13
		c0-13,0-24.6,0-37.6c0-4.3,0-8.7,0-13c0-7.2,0-14.1,0-21.2c0-7.4,0-14.8,0-22.2C48,88.2,46.7,88,45.6,87.8z"/>
	<path class="st4" d="M487.8,425.8c-5.5,0-10.9-0.2-16.4-0.6c-2.7-0.2-5.4-0.5-8.1-0.8c0,0-0.1,0-0.1,0c-1.3-0.3-2.7-0.4-4-0.7
		c-9.8-1.7-19.4-4.3-28.7-7.8c-1-0.4-1.9-0.7-2.9-1.1c-1.8-0.9-3.6-1.7-5.4-2.5c-4.3-2.1-8.4-4.4-12.5-7c-3.5-2.2-6.9-4.6-10.3-7
		c-0.8-0.7-1.6-1.3-2.4-1.9c-1.8-1.5-3.5-3-5.3-4.6c-6.6-6.1-12.8-12.7-18.5-19.6c-0.6-0.7-1.2-1.5-1.8-2.2
		c-1.1-1.6-2.4-3.2-3.5-4.8c-2.8-3.9-5.5-8-8-12c-10.2-16.2-18.7-33.4-26.4-51c-1-2.3-2-4.6-3-6.9c-0.3-0.7-0.6-1.5-0.9-2.1
		c-2-4.8-3.9-9.6-5.8-14.4c-3.6-9.3-7.1-18.6-10.6-28c-6.9-18.5-13.6-37.1-21-55.5c-14.6-36.3-31.1-72.4-57.3-101.9
		C222.1,78.5,207,67,190,58.7V83c124,77.4,89.1,364,297.8,364h-76.6c0.1,3-0.2,4.6-0.9,6.6c24.1,10.2,50.4,15.3,77.4,15.4
		c11.3,0,22.2-9.9,21.7-21.6C509,435.6,500,425.8,487.8,425.8z"/>
	<path class="st5" d="M131.5,42.8c-2.1-0.2-4.2-0.4-6.3-0.5c-1.9-0.1-3.8-0.3-5.7-0.3H27c0,0,0,0,0,0c1.5,0,3,0.2,4.5,0.5
		C56.6,44.1,80.6,51,101.7,64h3.3h14.4c10.3,0,19.8,0.9,28.8,2.7C164,69.7,178,75.3,190,83V58.7C172,49.7,152.2,44.3,131.5,42.8z"/>
	<path class="st4" d="M28.6,42.5c0.9,0,1.9,0.1,2.8,0.2c-1.4-0.3-2.9-0.4-4.5-0.4C27.5,42.3,28.1,42.4,28.6,42.5z"/>
	<g>
		<path class="st6" d="M188.5,108.1c-0.1,0-0.2-0.1-0.3-0.1c0,0,0,0,0,0C188.3,108.1,188.4,108.1,188.5,108.1z"/>
	</g>
	<g>
		<path class="st6" d="M187.5,107.4c-0.5-0.4-0.8-0.6-1.1-0.8c0.6,0.5,1.3,1.2,1.8,1.4C188,107.8,187.7,107.6,187.5,107.4z"/>
	</g>
	<g>
		<path class="st6" d="M188.3,108.1C188.3,108.1,188.2,108,188.3,108.1c-0.6-0.3-1.3-1-1.9-1.5C185.1,105.9,186,107.5,188.3,108.1z"
			/>
	</g>
	<g>
		<path class="st6" d="M487.8,447C279.1,447,314,160.5,190,83v26.7v75.7c2,3.2,2.7,6.4,4,9.7c7.4,18.4,14.1,36.9,21,55.5
			c3.5,9.4,7,18.7,10.6,28c1.9,4.8,3.8,9.6,5.8,14.4c0.3,0.6,0.6,1.4,0.9,2.1c0.9,2.3,2,4.6,3,6.9c7.7,17.5,16.2,34.8,26.4,51
			c2.6,4.1,5.2,8.1,8,12c1.1,1.6,2.4,3.2,3.5,4.8c0.6,0.7,1.2,1.5,1.8,2.2c5.7,7,11.8,13.6,18.5,19.6c1.7,1.6,3.5,3.1,5.3,4.6
			c0.8,0.7,1.6,1.3,2.4,1.9c3.4,2.4,6.8,4.8,10.3,7c4,2.5,8.2,4.9,12.5,7c1.8,0.9,3.6,1.7,5.4,2.5c1,0.4,1.9,0.8,2.9,1.1
			c9.3,3.5,18.9,6.1,28.7,7.8c0.7,0.1,1.4,0.2,2.1,0.3c0.6,0.1,1.3,0.2,1.9,0.3c0,0,0.1,0,0.1,0c2.7,0.3,5.4,0.6,8.1,0.8
			c5.5,0.4,10.8,0.6,16.3,0.6c12.1,0,21.5,9.7,21.5,21.4V447H487.8z"/>
	</g>
	<g>
		<path class="st7" d="M148.3,66.7c-9-1.7-18.6-2.7-28.9-2.7H105h-3.3c1.1,0.7,2.2,1.3,3.3,2c9,5.7,17.4,12.3,25.1,20
			c2.3,2.3,4.6,4.7,6.8,7.2c4,4.5,7.8,9.2,11.4,14.1c17.7,23.8,30.6,50.8,41.9,78.2v-75.7V83C177.9,75.3,164.1,69.7,148.3,66.7z"/>
	</g>
	<path class="st8" d="M396.9,447c4.4,3,8.9,4.5,13.5,6.4c0.6-2,1-3.4,0.9-6.4H396.9z"/>
	<polygon class="st8" points="27,42.3 27,42.3 27,42.3 	"/>
	<path class="st8" d="M27,42h-6v1.3C23,42.8,25,42,27,42z"/>
	<path class="st8" d="M396.9,446.8c-12-5.8-23.4-13.8-33.9-23.1c-0.7-0.1-1.4,0.1-2.1,0c-9.8-1.7-19.4-4.3-28.7-7.8
		c-1-0.4-1.9-0.7-2.9-1.1c-1.8-0.9-3.6-1.7-5.4-2.5c-4.3-2.1-8.4-4.4-12.5-7c-3.5-2.2-6.9-4.6-10.3-7c-0.8-0.7-1.6-1.3-2.4-1.9
		c-1.8-1.5-3.5-3-5.3-4.6c-6.6-6.1-12.8-12.7-18.5-19.6c-0.6-0.7-1.2-1.5-1.8-2.2c-1.1-1.6-2.4-3.2-3.5-4.8c-2.8-3.9-5.5-8-8-12
		c-10.2-16.2-18.7-33.4-26.4-51c-1-2.3-2-4.6-3-6.9c-0.3-0.7-0.6-1.5-0.9-2.1c-2-4.8-3.9-9.6-5.8-14.4c-3.6-9.3-7.1-18.6-10.6-28
		c-6.9-18.5-13.7-37.1-21.1-55.5c-1.3-3.2-2-6.4-4-9.7v60v60.1c2,4.9,4.2,9.9,6.3,14.8c2.9,6.8,6,13.5,9.2,20.2
		c10.2,2.6,19.8,7.8,27.8,15.8c14.4,14.4,20,34.3,16.7,52.9c2.8,3.1,5.7,6.1,8.7,9c35.4,34.6,82,50.7,131,50.9
		c9.2,0,18.1-6.9,20.8-15.6C405.8,451.6,401.3,449.7,396.9,446.8z"/>
	<path class="st8" d="M389.5,425.8c-5.5,0-10.9-0.2-16.3-0.6c-2.7-0.2-5.4-0.5-8.1-0.8c0,0,0,0-0.1,0c-0.6-0.1-1.3-0.4-1.9-0.5
		c10.5,9.3,21.8,17.2,33.9,23.2H411v0.1C411,435.4,401.6,425.8,389.5,425.8z"/>
	<path class="st9" d="M148.2,107.2c-3.6-4.8-7.3-9.5-11.3-14.1c-2.2-2.5-4.5-4.9-6.8-7.2c-7.7-7.7-16.2-14.3-25.1-20
		c-1.1-0.7-2.2-1.4-3.3-2C80.6,51.4,56.6,44.3,31.4,42.7c-0.9-0.1-1.9-0.3-2.8-0.3C28.1,42.2,27.5,42,27,42c0,0,0,0,0,0
		c-2,0-4,0.8-6,1.3V42H7.1C2.9,42,0,45.7,0,49.9v28.2c0,3.6,2.2,6.7,5.5,7.5C6.1,85.7,6.5,86,7.1,86h14.1c4.8,0,9.5,0,14.3,0.4
		c1.2,0.1,2.3,0.2,3.5,0.3c2.2,0.4,4.3,0.7,6.4,1.1c1.1,0.2,2.1,0.5,3.2,0.7c3.1,0.7,6.2,1.5,9.2,2.4c2.2,0.7,4.3,1.4,6.4,2.2
		c0.8,0.3,1.5,0.6,2.3,0.9c7.4,3.6,14.5,7.4,21.2,12.2c0.1,0.1,0.3,0.2,0.5,0.4c0.3,0.1,0.6,0.4,1.1,0.8c0.3,0.2,0.5,0.4,0.8,0.7
		c0.1,0,0.2,0.1,0.3,0.1c-0.1,0-0.1,0-0.2-0.1c1.1,0.9,2.2,1.8,3.3,2.8c3.2,2.9,6.3,5.9,9.3,9c0.8,0.8,1.6,1.7,2.4,2.6
		c1.9,2.1,3.8,4.2,5.6,6.4c0.5,0.7,1.1,1.4,1.6,2c0.2,0.3,0.5,1,0.7,1c1,1.4,2,2.4,3,3.8c2.2,3.1,4.3,6.3,6.3,9.2
		c2.7,4.3,5.2,8.9,7.6,13.3c4.5,8.1,8.6,16.5,12.4,24.8c1.9,4.1,3.7,8.3,5.5,12.5c0.1,0.2,0.2,0.6,0.4,1c0,0.1,0.1,0.2,0.1,0.3
		c0.2,0.6,0.5,1.1,0.7,1.7c1,2.3,1.8,4.7,2.8,7c13.4,33.2,25.2,67,38.2,100.1v-60.1v-60C179,158,165.9,131,148.2,107.2z"/>
	<path class="st8" d="M88.1,106.6c-1.2-0.7-0.4,0.9,1.9,1.5c0,0,0,0,0,0C89.4,107.8,88.7,107.1,88.1,106.6z"/>
	<path class="st10" d="M190,458.7c12,0.1,23.3-3.1,33.4-9.7L190,415.6V458.7z"/>
	<path class="st10" d="M190,338.7v41.8l51.1,51c4.5-6.9,7.4-14.5,8.8-22.3c-18.3-20.3-32.6-44-44.5-68.7
		C200.4,339.3,195,338.6,190,338.7z"/>
	<g>
		<path class="st11" d="M140.5,365.9c-15.1,23.2-12.5,54.6,7.7,75c0.1,0.1,0,0.1,0.1,0.2c11.6,11.6,26.7,17.4,41.7,17.6v-43.1
			l-41.8-41.9L140.5,365.9z"/>
		<path class="st11" d="M157.9,348.4l32.1,32.1v-41.8C179,338.8,167.6,342,157.9,348.4z"/>
	</g>
	<path class="st10" d="M233.3,356.3c-7.9-7.9-17.6-13.2-27.7-15.8c11.9,24.7,26.1,48.4,44.4,68.7
		C253.2,390.6,247.7,370.7,233.3,356.3z"/>
	<path class="st12" d="M190,415.6l33.5,33.4c3.1-1.9,6.7-4.8,9.8-7.9c3-3,5-5.8,7.8-9.7l-51.1-51V415.6z"/>
	<path class="st13" d="M158,348.4c-4,2.7-6.6,4.8-9.7,7.9c0,0,0,0,0,0.1c-3,3-5.9,6.6-7.8,9.7l7.7,7.8l41.8,41.9v-35.1L158,348.4z"
		/>
</g>
</svg>
