<?xml version="1.0" encoding="utf-8"?>
<!-- Generator: Adobe Illustrator 19.1.0, SVG Export Plug-In . SVG Version: 6.00 Build 0)  -->
<svg version="1.1" xmlns="http://www.w3.org/2000/svg" xmlns:xlink="http://www.w3.org/1999/xlink" x="0px" y="0px"
	 viewBox="0 0 510 510" style="enable-background:new 0 0 510 510;" xml:space="preserve">
<style type="text/css">
	.st0{fill:none;}
	.st1{fill:#2B5860;}
	.st2{fill:#39727F;}
	.st3{fill:#42828C;}
	.st4{fill:#CCCCCC;}
	.st5{fill:#EA8B00;}
	.st6{fill:#4990A5;}
	.st7{fill:#326470;}
	.st8{fill:#437F91;}
	.st9{fill:#4693A5;}
	.st10{fill:#E2E2E2;}
	.st11{fill:#A0A0A0;}
	.st12{fill:#FF9D00;}
	.st13{fill:#4A8F9E;}
	.st14{fill:#54A1BF;}
	.st15{fill:#EAEAEA;}
</style>
<g id="Layer_1">
</g>
<g id="Layer_2">
	<g>
		<path class="st0" d="M390.4,115.6v-15c-21.3-10.8-61.8-22.6-110-25.8v40.9H390.4z"/>
		<path class="st1" d="M280.3,122.7c34.6,9.2,61.6,36.6,70.2,71.4h39.8v-78.5h-110V122.7z"/>
		<path class="st2" d="M350.6,194.1c1.9,7.6,2.9,15.6,2.9,23.7c0,54.4-44.1,98.5-98.5,98.5v4.8h152.1v-127h-16.7H350.6z"/>
		<polygon class="st3" points="407.1,321.2 255,321.2 255,323.7 280.4,334.5 368.3,371.9 413.5,479.9 423,479.9 423,351.2 
			423,321.2 		"/>
		<polygon class="st4" points="423,351.2 423,479.9 423,510 434.7,510 434.7,351.2 		"/>
		<path class="st5" d="M303.8,38.5l-23.5,33.4v2.8c48.3,3.3,88.7,15,110,25.8v15v78.5h16.7v-78.5v-15V76.1
			C407.1,65.9,363.9,46.1,303.8,38.5z"/>
		<polygon class="st5" points="368.3,371.9 280.4,334.5 255,323.7 255,334.5 255,479.9 413.5,479.9 		"/>
		<path class="st2" d="M256.5,71.9H255v2v41.8v3.8c8.8,0,17.2,1.2,25.3,3.3v-7.1V74.7v-2.8H256.5z"/>
		<polygon class="st3" points="256.5,30.1 255.6,30.1 255,30.1 255,35.4 255,71.9 256.5,71.9 280.3,71.9 303.8,38.5 309.7,30.1 		
			"/>
		<polygon class="st6" points="255.6,30.1 256.5,30.1 309.7,30.1 280.3,0 255.6,0 255,0 255,30.1 		"/>
		<path class="st6" d="M350.6,194.1c-8.6-34.8-35.7-62.3-70.2-71.4c-8.1-2.1-16.6-3.3-25.3-3.3v4.3v11.5c37.4,0,69,24.9,79.2,59
			c2.3,7.5,3.5,15.5,3.5,23.7c0,45.7-37,82.7-82.7,82.7v15.8c54.4,0,98.5-44.1,98.5-98.5C353.5,209.7,352.5,201.7,350.6,194.1z"/>
		<path class="st4" d="M334.2,194.1c-10.2-34.1-41.8-59-79.2-59v59v106.5c45.7,0,82.7-37,82.7-82.7
			C337.7,209.6,336.5,201.7,334.2,194.1z"/>
		<path class="st7" d="M229.7,122.7v-7.1H118v78.5h41.5C168,159.4,195.1,131.9,229.7,122.7z"/>
		<path class="st8" d="M255,316.3c-54.4,0-98.5-44.1-98.5-98.5c0-8.2,1-16.1,2.9-23.7H118h-15v127H255V316.3z"/>
		<polygon class="st9" points="102.9,321.2 87,321.2 87,351.2 87,479.9 96.5,479.9 141.7,371.9 229.6,334.5 255,323.7 255,321.2 		
			"/>
		<polygon class="st10" points="75.3,351.2 75.3,510 87,510 87,479.9 87,351.2 		"/>
		<polygon class="st4" points="75.3,406.2 75.3,510 87,510 87,490.3 87,406.2 		"/>
		<polygon class="st11" points="423,406.2 423,510 434.7,510 434.7,490.3 434.7,406.2 		"/>
		<path class="st12" d="M206.2,38.5c-60.1,7.6-103.3,27.4-103.3,37.6v24.5v15v78.5h15v-78.5v-15c21.6-10.9,62.7-22.8,111.7-25.9
			v-2.7L206.2,38.5z"/>
		<polygon class="st12" points="229.6,334.5 141.7,371.9 96.5,479.9 255,479.9 255,334.5 255,323.7 		"/>
		<path class="st8" d="M254.4,71.9h-24.8v2.7v41v7.1c8.1-2.1,16.6-3.3,25.3-3.3v-3.8V73.8v-2H254.4z"/>
		<polygon class="st13" points="254.4,30.1 253.5,30.1 200.3,30.1 206.2,38.5 229.7,71.9 254.4,71.9 255,71.9 255,35.4 255,30.1 		
			"/>
		<polygon class="st14" points="229.7,0 200.3,30.1 253.5,30.1 254.4,30.1 255,30.1 255,0 253.5,0 		"/>
		<path class="st14" d="M229.7,122.7c-34.6,9.2-61.6,36.6-70.2,71.4c-1.9,7.6-2.9,15.6-2.9,23.7c0,54.4,44.1,98.5,98.5,98.5v-15.8
			c-45.7,0-82.7-37-82.7-82.7c0-8.3,1.2-16.2,3.5-23.7c10.2-34.1,41.8-59,79.2-59v-11.5v-4.3C246.2,119.4,237.8,120.6,229.7,122.7z"
			/>
		<path class="st15" d="M175.8,194.1c-2.3,7.5-3.5,15.5-3.5,23.7c0,45.7,37,82.7,82.7,82.7V194.1v-59
			C217.6,135.2,186,160,175.8,194.1z"/>
	</g>
</g>
</svg>
