<?xml version="1.0" encoding="utf-8"?>
<!-- Generator: Adobe Illustrator 19.1.0, SVG Export Plug-In . SVG Version: 6.00 Build 0)  -->
<svg version="1.1" id="Layer_1" xmlns="http://www.w3.org/2000/svg" xmlns:xlink="http://www.w3.org/1999/xlink" x="0px" y="0px"
	 viewBox="0 0 510 510" style="enable-background:new 0 0 510 510;" xml:space="preserve">
<style type="text/css">
	.st0{fill:#C9E8EF;}
	.st1{fill:#B0E2F9;}
	.st2{fill:#EEF8FD;}
	.st3{fill:#C6E8F3;}
	.st4{fill:#8ECEE4;}
	.st5{fill:#DDF1FC;}
	.st6{fill:#D6EDF4;}
	.st7{fill:#E2F3FB;}
	.st8{fill:#E2E2E1;}
	.st9{fill:#F4F4F4;}
	.st10{fill:#FDED70;}
	.st11{fill:#67BD60;}
	.st12{fill:#FCF291;}
	.st13{fill:#7DC581;}
	.st14{fill:#FFFFFF;}
	.st15{fill:#EFEFEF;}
</style>
<g>
	<g>
		<g>
			<path class="st0" d="M293.7,62.6c-106.2,0-192.3,86.1-192.3,192.3c0,0.1,0,0.2,0,0.3c0-6.4,0.3-12.7,1-19
				c1.9-19,6.6-37.3,13.7-54.3c3.9-9.4,8.5-18.5,13.9-27.1c18.6-30.2,45.4-54.8,77.2-70.8c25.9-13,55.1-20.3,86-20.3
				c1.4,0,2.7,0,4.1,0.1v47c78,1.9,140.7,65.6,140.7,144.1S375.3,397.2,297.2,399v48.1c-1.3,0-2.5,0-3.8,0c0.1,0,0.2,0,0.3,0
				c106.2,0,192.3-86.1,192.3-192.3S400,62.6,293.7,62.6z"/>
			<path class="st1" d="M429.7,254.9c0,73.9-59,134-132.5,135.9v8.2c78-1.9,140.7-65.6,140.7-144.1s-62.7-142.3-140.7-144.1v8.2
				C370.7,120.8,429.7,181,429.7,254.9z"/>
			<path class="st2" d="M429.7,254.9c0-73.9-59-134-132.5-135.9v271.8C370.7,388.9,429.7,328.8,429.7,254.9z"/>
			<path class="st3" d="M297.2,399c-1.2,0-2.3,0.1-3.5,0.1c-79.6,0-144.2-64.6-144.2-144.2s64.6-144.2,144.2-144.2
				c1.2,0,2.3,0.1,3.5,0.1v-47c-1.4,0-2.7-0.1-4.1-0.1c-30.9,0-60.1,7.3-86,20.3c-31.8,16-58.6,40.6-77.2,70.8
				c-5.3,8.6-9.9,17.7-13.9,27.1c-7.1,17-11.8,35.2-13.7,54.3c-0.6,6.2-1,12.6-1,19c0.2,106,86,191.9,192,192c1.3,0,2.5,0,3.8,0V399
				z"/>
			<path class="st4" d="M149.5,254.9c0,79.6,64.6,144.2,144.2,144.2c1.2,0,2.3-0.1,3.5-0.1v-8.2c-1.2,0-2.3,0.1-3.5,0.1
				c-75.1,0-136-60.9-136-136s60.9-136,136-136c1.2,0,2.3,0.1,3.5,0.1v-8.2c-1.2,0-2.3-0.1-3.5-0.1
				C214.1,110.7,149.5,175.2,149.5,254.9z"/>
			<path class="st5" d="M293.7,118.9c-75.1,0-136,60.9-136,136s60.9,136,136,136c1.2,0,2.3-0.1,3.5-0.1V119
				C296.1,119,294.9,118.9,293.7,118.9z"/>
		</g>
		<g>
			<path class="st6" d="M265.2,62.6C159,62.6,72.9,148.7,72.9,254.9c0,0.1,0,0.2,0,0.3c0-6.4,0.3-12.7,1-19
				c1.9-19,6.6-37.3,13.7-54.3c3.9-9.4,8.5-18.5,13.9-27.1c18.6-30.2,45.4-54.8,77.2-70.8c25.9-13,55.1-20.3,86-20.3
				c1.4,0,2.7,0,4.1,0.1v47c78,1.9,140.7,65.6,140.7,144.1S346.8,397.2,268.7,399v48.1c-1.3,0-2.5,0-3.8,0c0.1,0,0.2,0,0.3,0
				c106.2,0,192.3-86.1,192.3-192.3S371.5,62.6,265.2,62.6z"/>
			<path class="st1" d="M401.2,254.9c0,73.9-59,134-132.5,135.9v8.2c78-1.9,140.7-65.6,140.7-144.1s-62.7-142.3-140.7-144.1v8.2
				C342.2,120.8,401.2,181,401.2,254.9z"/>
			<path class="st2" d="M401.2,254.9c0-73.9-59-134-132.5-135.9v271.8C342.2,388.9,401.2,328.8,401.2,254.9z"/>
			<path class="st3" d="M268.7,399c-1.2,0-2.3,0.1-3.5,0.1c-79.6,0-144.2-64.6-144.2-144.2s64.6-144.2,144.2-144.2
				c1.2,0,2.3,0.1,3.5,0.1v-47c-1.4,0-2.7-0.1-4.1-0.1c-30.9,0-60.1,7.3-86,20.3c-31.8,16-58.6,40.6-77.2,70.8
				c-5.3,8.6-9.9,17.7-13.9,27.1c-7.1,17-11.8,35.2-13.7,54.3c-0.6,6.2-1,12.6-1,19c0.2,106,86,191.9,192,192c1.3,0,2.5,0,3.8,0V399
				z"/>
			<path class="st4" d="M121,254.9c0,79.6,64.6,144.2,144.2,144.2c1.2,0,2.3-0.1,3.5-0.1v-8.2c-1.2,0-2.3,0.1-3.5,0.1
				c-75.1,0-136-60.9-136-136s60.9-136,136-136c1.2,0,2.3,0.1,3.5,0.1v-8.2c-1.2,0-2.3-0.1-3.5-0.1C185.6,110.7,121,175.2,121,254.9
				z"/>
			<path class="st5" d="M265.2,118.9c-75.1,0-136,60.9-136,136s60.9,136,136,136c1.2,0,2.3-0.1,3.5-0.1V119
				C267.6,119,266.4,118.9,265.2,118.9z"/>
		</g>
		<g>
			<path class="st7" d="M236.8,62.6c-106.2,0-192.3,86.1-192.3,192.3c0,0.1,0,0.2,0,0.3c0-6.4,0.3-12.7,1-19
				c1.9-19,6.6-37.3,13.7-54.3c3.9-9.4,8.5-18.5,13.9-27.1c18.6-30.2,45.4-54.8,77.2-70.8c25.9-13,55.1-20.3,86-20.3
				c1.4,0,2.7,0,4.1,0.1v47c78,1.9,140.7,65.6,140.7,144.1S318.3,397.2,240.2,399v48.1c-1.3,0-2.5,0-3.8,0c0.1,0,0.2,0,0.3,0
				c106.2,0,192.3-86.1,192.3-192.3S343,62.6,236.8,62.6z"/>
			<path class="st1" d="M372.7,254.9c0,73.9-59,134-132.5,135.9v8.2c78-1.9,140.7-65.6,140.7-144.1s-62.7-142.3-140.7-144.1v8.2
				C313.7,120.8,372.7,181,372.7,254.9z"/>
			<path class="st2" d="M372.7,254.9c0-73.9-59-134-132.5-135.9v271.8C313.7,388.9,372.7,328.8,372.7,254.9z"/>
			<path class="st3" d="M240.2,399c-1.2,0-2.3,0.1-3.5,0.1c-79.6,0-144.2-64.6-144.2-144.2s64.6-144.2,144.2-144.2
				c1.2,0,2.3,0.1,3.5,0.1v-47c-1.4,0-2.7-0.1-4.1-0.1c-30.9,0-60.1,7.3-86,20.3c-31.8,16-58.6,40.6-77.2,70.8
				c-5.3,8.6-9.9,17.7-13.9,27.1c-7.1,17-11.8,35.2-13.7,54.3c-0.6,6.2-1,12.6-1,19c0.2,106,86,191.9,192,192c1.3,0,2.5,0,3.8,0V399
				z"/>
			<path class="st4" d="M92.5,254.9c0,79.6,64.6,144.2,144.2,144.2c1.2,0,2.3-0.1,3.5-0.1v-8.2c-1.2,0-2.3,0.1-3.5,0.1
				c-75.1,0-136-60.9-136-136s60.9-136,136-136c1.2,0,2.3,0.1,3.5,0.1v-8.2c-1.2,0-2.3-0.1-3.5-0.1
				C157.1,110.7,92.5,175.2,92.5,254.9z"/>
			<path class="st5" d="M236.8,118.9c-75.1,0-136,60.9-136,136s60.9,136,136,136c1.2,0,2.3-0.1,3.5-0.1V119
				C239.1,119,237.9,118.9,236.8,118.9z"/>
		</g>
	</g>
	<g>
		<polyline class="st8" points="255.5,447.4 90.5,447.4 1,261.5 255.5,261.5 		"/>
		<polyline class="st9" points="255.5,447.4 420.5,447.4 510,261.5 255.5,261.5 		"/>
	</g>
	<g>
		<rect y="384.2" class="st10" width="183.6" height="63.2"/>
		<rect y="375.8" class="st11" width="183.6" height="9.2"/>
		<rect x="91.8" y="384.2" class="st12" width="91.8" height="63.2"/>
		<rect x="91.8" y="375.8" class="st13" width="91.8" height="9.2"/>
	</g>
	<g>
		<g>
			<path class="st14" d="M477.9,64.2v53.3c14.7,0,26.6-11.9,26.6-26.6C504.5,76.1,492.6,64.2,477.9,64.2z"/>
			<path class="st15" d="M451.3,90.8c0,14.7,11.9,26.6,26.6,26.6V64.2C463.2,64.2,451.3,76.1,451.3,90.8z"/>
		</g>
		<g>
			<path class="st14" d="M328.5,263.6c-1.9-7.4-2.9-15.1-2.9-23.1c0-8.6,1.2-16.9,3.4-24.8c-4.9-1.3-10-2-15.3-2v49.9H328.5z"/>
			<path class="st15" d="M296.6,263.6h17.1v-49.9c-9.8,0-19,2.4-27.1,6.6c6.5,11.1,10.3,23.9,10.3,37.7
				C296.9,259.8,296.8,261.7,296.6,263.6z"/>
			<path class="st14" d="M148.4,263.6c-0.1-1.9-0.2-3.8-0.2-5.7c0-6.8,0.9-13.4,2.6-19.6c-4.2-1.2-8.5-1.8-13.1-1.8v27.1H148.4z"/>
			<path class="st15" d="M137.7,236.4c-19,0-35.4,11.1-43.2,27.1h43.2V236.4z"/>
			<path class="st14" d="M506.3,263.6c1.9-7.4,2.9-15.1,2.9-23.1c0-50.7-41.1-91.8-91.8-91.8v114.9H506.3z"/>
			<path class="st15" d="M372.3,263.6h45.1V148.7c-42.1,0-77.5,28.3-88.4,67C351.4,221.6,368.6,240.3,372.3,263.6z"/>
			<path class="st15" d="M328.5,263.6h43.7c-3.7-23.2-20.9-41.9-43.2-47.9c-2.2,7.9-3.4,16.2-3.4,24.8
				C325.6,248.4,326.6,256.2,328.5,263.6z"/>
			<path class="st14" d="M255.1,263.6c3-18.9,15-34.9,31.5-43.4c-12.9-21.9-36.8-36.7-64.1-36.7v80H255.1z"/>
			<path class="st14" d="M255.1,263.6h41.5c0.1-1.9,0.2-3.8,0.2-5.7c0-13.8-3.8-26.6-10.3-37.7C270.1,228.7,258.2,244.6,255.1,263.6
				z"/>
			<path class="st15" d="M180.9,263.6h41.6v-80c-34.3,0-63.1,23.2-71.7,54.7C164.1,242,175,251.3,180.9,263.6z"/>
			<path class="st15" d="M148.4,263.6h32.5c-5.9-12.2-16.8-21.5-30.1-25.3c-1.7,6.3-2.6,12.8-2.6,19.6
				C148.2,259.8,148.3,261.7,148.4,263.6z"/>
		</g>
	</g>
</g>
</svg>
