<?xml version="1.0" encoding="utf-8"?>
<!-- Generator: Adobe Illustrator 19.1.0, SVG Export Plug-In . SVG Version: 6.00 Build 0)  -->
<svg version="1.1" xmlns="http://www.w3.org/2000/svg" xmlns:xlink="http://www.w3.org/1999/xlink" x="0px" y="0px"
	 viewBox="0 0 510 510" style="enable-background:new 0 0 510 510;" xml:space="preserve">
<style type="text/css">
	.st0{fill:#FFD522;}
	.st1{fill:#FAEE5B;}
	.st2{fill:#FDF7BC;}
	.st3{fill:#C6B642;}
	.st4{fill:#32323F;}
</style>
<g id="Layer_1">
	<circle class="st0" cx="255" cy="257.9" r="252.1"/>
	<g>
		<path class="st1" d="M255,0C115.8,0,2.9,112.9,2.9,252.1c0,32.7,6.2,63.9,17.5,92.5L347.5,17.5C318.9,6.2,287.7,0,255,0z"/>
		<path class="st2" d="M347.5,17.5L20.5,344.6c17.2,43.5,46.1,81,82.8,108.8l353-353C428.6,63.6,391,34.7,347.5,17.5z"/>
		<g>
			<path class="st1" d="M176.2,491.5c24.8,8.2,51.3,12.6,78.8,12.6c139.2,0,252.1-112.9,252.1-252.1c0-27.5-4.5-54-12.6-78.8
				L176.2,491.5z"/>
			<path class="st1" d="M456.3,100.4l-353,353c12.8,9.7,26.6,18.1,41.2,25.3l337.1-337.1C474.4,127,466,113.2,456.3,100.4z"/>
			<path class="st2" d="M481.6,141.5L144.5,478.6c10.2,5,20.8,9.3,31.7,12.9l318.3-318.3C490.9,162.3,486.6,151.7,481.6,141.5z"/>
		</g>
	</g>
	<g>
		<path class="st3" d="M255,465.3c-120.4,0-218.3-97.9-218.3-218.3S134.6,28.6,255,28.6s218.3,97.9,218.3,218.3
			S375.4,465.3,255,465.3z M255,38C139.8,38,46.1,131.7,46.1,246.9c0,115.2,93.7,208.9,208.9,208.9c115.2,0,208.9-93.7,208.9-208.9
			C463.9,131.7,370.2,38,255,38z"/>
	</g>
	<g>
		<path class="st4" d="M255,470.4c-120.4,0-218.3-97.9-218.3-218.3S134.6,33.7,255,33.7s218.3,97.9,218.3,218.3
			S375.4,470.4,255,470.4z M255,43.2c-115.2,0-208.9,93.7-208.9,208.9C46.1,367.3,139.8,461,255,461c115.2,0,208.9-93.7,208.9-208.9
			C463.9,136.9,370.2,43.2,255,43.2z"/>
	</g>
</g>
<g id="Layer_2">
</g>
</svg>
