<?xml version="1.0" encoding="utf-8"?>
<!-- Generator: Adobe Illustrator 19.1.0, SVG Export Plug-In . SVG Version: 6.00 Build 0)  -->
<svg version="1.1" id="Layer_1" xmlns="http://www.w3.org/2000/svg" xmlns:xlink="http://www.w3.org/1999/xlink" x="0px" y="0px"
	 viewBox="0 0 510 510" style="enable-background:new 0 0 510 510;" xml:space="preserve">
<style type="text/css">
	.st0{fill:#EBB222;}
	.st1{fill:#FFC831;}
	.st2{fill:#AC7139;}
	.st3{fill:#BB8449;}
	.st4{fill:#559BB4;}
	.st5{fill:#5CA0BE;}
	.st6{fill:#CE2041;}
	.st7{fill:#DC3656;}
</style>
<g>
	<path class="st0" d="M167.2,354c3.6,11.4,43.8,156,43.8,156H122V325.5C152,325.5,163.6,342.5,167.2,354z"/>
	<path class="st1" d="M32,510c0,0,41.1-144.6,44.4-156c3.2-11.4,8.7-28.5,45.7-28.5V510H65.1l5.1-40.9L55.4,510H32z"/>
	<path class="st2" d="M133,274.4V11.7c0-6.5-5-11.9-11-11.9v286.5C128,286.3,133,281,133,274.4z"/>
	<path class="st3" d="M109,11.7v262.8c0,6.5,6,11.9,13,11.9V-0.2C115-0.2,109,5.1,109,11.7z"/>
	<g>
		<path class="st4" d="M211,189.5l38.4,110.3c0,0,7.6,16.9,23.3,16.9c8.7,0,71.9,0,71.9,0V189.5H211z"/>
		<path class="st5" d="M478,189.5l-38.4,110.3c0,0-7.6,16.9-23.3,16.9c-8.7,0-71.9,0-71.9,0V189.5H478z"/>
		<rect x="344.5" y="315.5" class="st5" width="12.4" height="65.9"/>
		<rect x="332.2" y="315.5" class="st4" width="12.4" height="65.9"/>
	</g>
	<polygon class="st0" points="144.7,268 134.3,268 133.6,268 122,268 122,291.6 122,313 145.4,313 166.2,268 	"/>
	<polygon class="st1" points="98.7,268 109.1,268 109.8,268 122,268 122,291.6 122,313 98,313 77.2,268 	"/>
	<path class="st6" d="M153.4,307H122v26h31.4c2.5,0,4.6-1.5,4.6-3.9V311C158,308.5,155.9,307,153.4,307z"/>
	<path class="st7" d="M89.4,307c-2.5,0-5.4,1.5-5.4,4v18.1c0,2.5,2.9,3.9,5.4,3.9H122v-26H89.4z"/>
</g>
</svg>
