<?xml version="1.0" encoding="utf-8"?>
<!-- Generator: Adobe Illustrator 19.1.0, SVG Export Plug-In . SVG Version: 6.00 Build 0)  -->
<svg version="1.1" id="Layer_1" xmlns="http://www.w3.org/2000/svg" xmlns:xlink="http://www.w3.org/1999/xlink" x="0px" y="0px"
	 viewBox="0 0 510 510" style="enable-background:new 0 0 510 510;" xml:space="preserve">
<style type="text/css">
	.st0{fill:#559BB4;}
	.st1{fill:#5CA0BE;}
	.st2{fill:#EBB222;}
	.st3{fill:#FFC831;}
	.st4{fill:#AC7139;}
	.st5{fill:#BB8449;}
	.st6{fill:#CE2041;}
	.st7{fill:#DC3656;}
</style>
<g>
	<path class="st0" d="M478,381.4l-38.4-110.3c0,0-7.6-16.9-23.3-16.9c-8.7,0-71.9,0-71.9,0v127.2H478z"/>
	<path class="st1" d="M211,381.4l38.4-110.3c0,0,7.6-16.9,23.3-16.9c8.7,0,71.9,0,71.9,0v127.2H211z"/>
	<rect x="332.1" y="189.5" class="st1" width="12.4" height="65.9"/>
	<rect x="344.4" y="189.5" class="st0" width="12.4" height="65.9"/>
</g>
<g>
	<path class="st2" d="M75.8,155.8C72.2,144.4,32-0.2,32-0.2l89,0v184.5C91,184.3,79.4,167.3,75.8,155.8z"/>
	<path class="st3" d="M211-0.2c0,0-41.1,144.6-44.4,156c-3.2,11.4-8.7,28.5-45.7,28.5V-0.2h57l-5.1,40.9l14.8-40.9L211-0.2z"/>
	<path class="st4" d="M110,235.4v262.7c0,6.5,5,11.9,11,11.9V223.5C115,223.5,110,228.8,110,235.4z"/>
	<path class="st5" d="M134,498.1V235.3c0-6.5-6-11.9-13-11.9V510C128,510,134,504.7,134,498.1z"/>
	<polygon class="st2" points="98.3,241.8 108.7,241.8 109.4,241.8 121,241.8 121,218.2 121,196.8 97.6,196.8 76.8,241.8 	"/>
	<polygon class="st3" points="144.3,241.8 133.9,241.8 133.2,241.8 121,241.8 121,218.2 121,196.8 145,196.8 165.8,241.8 	"/>
	<path class="st6" d="M89.6,202.8H121v-26H89.6c-2.5,0-4.6,1.5-4.6,3.9v18.1C85,201.3,87.1,202.8,89.6,202.8z"/>
	<path class="st7" d="M153.6,202.8c2.5,0,5.4-1.5,5.4-4v-18.1c0-2.5-2.9-3.9-5.4-3.9H121v26H153.6z"/>
</g>
</svg>
