<?xml version="1.0" encoding="utf-8"?>
<!-- Generator: Adobe Illustrator 19.1.0, SVG Export Plug-In . SVG Version: 6.00 Build 0)  -->
<svg version="1.1" id="Layer_1" xmlns="http://www.w3.org/2000/svg" xmlns:xlink="http://www.w3.org/1999/xlink" x="0px" y="0px"
	 viewBox="0 0 510 510" style="enable-background:new 0 0 510 510;" xml:space="preserve">
<style type="text/css">
	.st0{fill:#FFFFFF;}
	.st1{fill:#AEAEAF;}
	.st2{fill:#D1D1D1;}
	.st3{fill:#F2F2F2;}
	.st4{fill:#B7E3F1;}
	.st5{fill:#E4F4FB;}
	.st6{fill:#EE3F3F;}
	.st7{fill:#BF3232;}
	.st8{fill:#D53A3A;}
	.st9{fill:#A52D2D;}
	.st10{fill:#FFE551;}
</style>
<g>
	<rect x="24.8" y="45.3" class="st0" width="237.9" height="285.3"/>
	<rect x="263.1" y="0.8" class="st1" width="246.9" height="44.4"/>
	<rect y="0.8" class="st2" width="263.1" height="44.4"/>
	<rect x="263.1" y="330.6" class="st1" width="246.9" height="14.9"/>
	<rect y="330.6" class="st2" width="263.1" height="14.9"/>
	<rect x="262.7" y="45.3" class="st3" width="222.4" height="285.3"/>
	<g>
		<g>
			<polygon class="st4" points="38.2,316 166.2,316 38.2,188 			"/>
			<polygon class="st4" points="86.1,60 249.4,223.2 249.4,60 			"/>
			<polygon class="st4" points="38.2,60 38.2,77 249.4,288.2 249.4,261.2 48.1,60 			"/>
		</g>
		<g>
			<polygon class="st5" points="38.2,188 166.2,316 249.4,316 249.4,288.2 38.2,77 			"/>
			<polygon class="st5" points="86.1,60 48.1,60 249.4,261.2 249.4,223.2 			"/>
		</g>
	</g>
	<g>
		<g>
			<polygon class="st4" points="276.3,316 394.6,316 276.3,188 			"/>
			<polygon class="st4" points="320.6,60 471.5,223.2 471.5,60 			"/>
			<polygon class="st4" points="276.3,60 276.3,77 471.5,288.2 471.5,261.2 285.4,60 			"/>
		</g>
		<g>
			<polygon class="st5" points="276.3,188 394.6,316 471.5,316 471.5,288.2 276.3,77 			"/>
			<polygon class="st5" points="320.6,60 285.4,60 471.5,261.2 471.5,223.2 			"/>
		</g>
	</g>
	<path class="st6" d="M11,45.3h113.5c0,40.8-62.4,90.3-83.5,90.3c-7.4,0-30,0-30,0V45.3z"/>
	<rect x="11" y="160.6" class="st7" width="23.3" height="170"/>
	<rect x="11" y="135.5" class="st8" width="30" height="26.1"/>
	<path class="st8" d="M499,45.3H385.5c0,40.8,62.4,90.3,83.5,90.3c7.4,0,30,0,30,0V45.3z"/>
	<rect x="475.7" y="160.6" class="st9" width="23.3" height="170"/>
	<rect x="469.1" y="135.5" class="st7" width="30" height="26.1"/>
	<path class="st10" d="M411.8,281.1c-0.5,0-1.1,0-1.6,0.1c-0.4,0-0.7-0.1-1.1-0.1H332c-6.5,0-11.7,5.2-11.7,11.7l0,0
		c0,6.5,5.2,11.7,11.7,11.7h55h17.5c0.7,0,1.3,0.6,1.3,1.3c0,0.7-0.6,1.3-1.3,1.3H387l0,0h-55c-6.5,0-11.7,5.2-11.7,11.7l0,0
		c0,6.5,5.2,11.7,11.7,11.7h77.1c0.4,0,0.7,0,1.1-0.1c0.5,0,1.1,0.1,1.6,0.1c13.7,0,24.8-11.1,24.8-24.8
		C436.6,292.1,425.5,281.1,411.8,281.1z"/>
</g>
</svg>
